<svg id="svg" version="1.1" xmlns="http://www.w3.org/2000/svg" xmlns:xlink="http://www.w3.org/1999/xlink" width="400" height="400" viewBox="0, 0, 400,400"><g id="svgg"><path id="path0" d="M79.600 40.000 C 79.600 40.220,80.050 40.400,80.600 40.400 C 81.150 40.400,81.600 40.220,81.600 40.000 C 81.600 39.780,81.150 39.600,80.600 39.600 C 80.050 39.600,79.600 39.780,79.600 40.000 M319.200 40.000 C 319.200 40.220,319.650 40.400,320.200 40.400 C 320.750 40.400,321.200 40.220,321.200 40.000 C 321.200 39.780,320.750 39.600,320.200 39.600 C 319.650 39.600,319.200 39.780,319.200 40.000 M75.600 40.800 C 75.600 41.020,75.960 41.200,76.400 41.200 C 76.840 41.200,77.200 41.020,77.200 40.800 C 77.200 40.580,76.840 40.400,76.400 40.400 C 75.960 40.400,75.600 40.580,75.600 40.800 M323.600 40.800 C 323.600 41.020,323.960 41.200,324.400 41.200 C 324.840 41.200,325.200 41.020,325.200 40.800 C 325.200 40.580,324.840 40.400,324.400 40.400 C 323.960 40.400,323.600 40.580,323.600 40.800 M71.600 41.600 C 71.600 41.820,71.240 42.000,70.800 42.000 C 69.995 42.000,69.714 42.576,70.332 42.958 C 70.744 43.212,73.600 41.952,73.600 41.517 C 73.600 41.342,73.150 41.200,72.600 41.200 C 72.050 41.200,71.600 41.380,71.600 41.600 M327.200 41.517 C 327.200 41.952,330.056 43.212,330.468 42.958 C 331.086 42.576,330.805 42.000,330.000 42.000 C 329.560 42.000,329.200 41.820,329.200 41.600 C 329.200 41.380,328.750 41.200,328.200 41.200 C 327.650 41.200,327.200 41.342,327.200 41.517 M331.200 43.200 C 331.200 43.420,331.470 43.600,331.800 43.600 C 332.130 43.600,332.400 43.420,332.400 43.200 C 332.400 42.980,332.130 42.800,331.800 42.800 C 331.470 42.800,331.200 42.980,331.200 43.200 M336.000 45.600 C 336.000 45.820,336.270 46.000,336.600 46.000 C 336.930 46.000,337.200 45.820,337.200 45.600 C 337.200 45.380,336.930 45.200,336.600 45.200 C 336.270 45.200,336.000 45.380,336.000 45.600 M62.000 46.633 C 62.000 47.340,62.861 47.217,63.108 46.475 C 63.195 46.214,62.982 46.000,62.633 46.000 C 62.285 46.000,62.000 46.285,62.000 46.633 M337.692 46.475 C 337.939 47.217,338.800 47.340,338.800 46.633 C 338.800 46.285,338.515 46.000,338.167 46.000 C 337.818 46.000,337.605 46.214,337.692 46.475 M59.260 48.242 C 58.962 48.578,58.812 48.945,58.925 49.059 C 59.219 49.353,60.800 48.448,60.800 47.986 C 60.800 47.399,59.868 47.554,59.260 48.242 M340.000 47.986 C 340.000 48.455,341.583 49.351,341.882 49.051 C 342.160 48.774,340.985 47.600,340.429 47.600 C 340.193 47.600,340.000 47.774,340.000 47.986 M55.261 51.455 C 53.939 52.838,53.730 53.928,55.037 52.620 C 55.408 52.249,56.137 51.667,56.656 51.326 C 57.175 50.986,57.600 50.549,57.600 50.354 C 57.600 49.613,56.549 50.108,55.261 51.455 M343.200 50.354 C 343.200 50.549,343.625 50.986,344.144 51.326 C 344.663 51.667,345.392 52.249,345.763 52.620 C 346.134 52.991,346.538 53.196,346.659 53.074 C 346.781 52.953,346.238 52.211,345.453 51.427 C 344.069 50.042,343.200 49.629,343.200 50.354 M51.300 55.416 C 50.585 56.165,50.000 56.962,50.000 57.189 C 50.000 57.937,50.730 57.616,51.567 56.500 C 52.020 55.895,52.573 55.183,52.796 54.917 C 54.057 53.410,52.822 53.822,51.300 55.416 M347.600 54.217 C 347.600 54.336,347.782 54.651,348.004 54.917 C 348.227 55.183,348.780 55.895,349.233 56.500 C 349.687 57.105,350.225 57.600,350.429 57.600 C 351.165 57.600,350.773 56.747,349.413 55.387 C 348.086 54.059,347.600 53.746,347.600 54.217 M48.100 59.398 C 47.505 60.074,47.446 60.800,47.986 60.800 C 48.342 60.800,49.200 59.547,49.200 59.026 C 49.200 58.619,48.610 58.819,48.100 59.398 M351.600 59.026 C 351.600 59.547,352.458 60.800,352.814 60.800 C 353.384 60.800,353.283 60.026,352.629 59.371 C 352.037 58.780,351.600 58.633,351.600 59.026 M46.000 62.600 C 46.000 62.967,46.194 63.202,46.430 63.123 C 46.667 63.044,46.860 62.809,46.860 62.600 C 46.860 62.391,46.667 62.156,46.430 62.077 C 46.194 61.998,46.000 62.233,46.000 62.600 M353.878 62.256 C 353.558 62.575,353.919 63.200,354.424 63.200 C 354.631 63.200,354.800 62.930,354.800 62.600 C 354.800 61.981,354.328 61.805,353.878 62.256 M43.600 67.400 C 43.600 67.730,43.780 68.000,44.000 68.000 C 44.220 68.000,44.400 67.730,44.400 67.400 C 44.400 67.070,44.220 66.800,44.000 66.800 C 43.780 66.800,43.600 67.070,43.600 67.400 M356.400 67.400 C 356.400 67.730,356.580 68.000,356.800 68.000 C 357.020 68.000,357.200 67.730,357.200 67.400 C 357.200 67.070,357.020 66.800,356.800 66.800 C 356.580 66.800,356.400 67.070,356.400 67.400 M42.800 69.000 C 42.800 69.367,42.994 69.602,43.230 69.523 C 43.467 69.444,43.660 69.209,43.660 69.000 C 43.660 68.791,43.467 68.556,43.230 68.477 C 42.994 68.398,42.800 68.633,42.800 69.000 M357.200 69.000 C 357.200 69.330,357.380 69.600,357.600 69.600 C 357.820 69.600,358.000 69.330,358.000 69.000 C 358.000 68.670,357.820 68.400,357.600 68.400 C 357.380 68.400,357.200 68.670,357.200 69.000 M42.000 71.400 C 42.000 71.730,42.180 72.000,42.400 72.000 C 42.620 72.000,42.800 71.730,42.800 71.400 C 42.800 71.070,42.620 70.800,42.400 70.800 C 42.180 70.800,42.000 71.070,42.000 71.400 M358.000 71.400 C 358.000 71.730,358.180 72.000,358.400 72.000 C 358.620 72.000,358.800 71.730,358.800 71.400 C 358.800 71.070,358.620 70.800,358.400 70.800 C 358.180 70.800,358.000 71.070,358.000 71.400 M223.500 75.503 C 222.350 75.759,222.708 76.400,224.000 76.400 C 224.660 76.400,225.200 76.239,225.200 76.043 C 225.200 75.572,224.373 75.309,223.500 75.503 M243.100 75.428 C 242.360 76.180,243.015 76.400,246.000 76.400 C 247.867 76.400,249.200 76.233,249.200 76.000 C 249.200 75.780,248.685 75.600,248.056 75.600 C 247.427 75.600,246.122 75.493,245.156 75.362 C 244.190 75.231,243.265 75.261,243.100 75.428 M40.400 76.400 C 40.400 76.840,40.580 77.200,40.800 77.200 C 41.020 77.200,41.200 76.840,41.200 76.400 C 41.200 75.960,41.020 75.600,40.800 75.600 C 40.580 75.600,40.400 75.960,40.400 76.400 M359.600 76.400 C 359.600 76.840,359.780 77.200,360.000 77.200 C 360.220 77.200,360.400 76.840,360.400 76.400 C 360.400 75.960,360.220 75.600,360.000 75.600 C 359.780 75.600,359.600 75.960,359.600 76.400 M218.100 76.267 C 217.227 76.616,217.561 77.200,218.633 77.200 C 219.253 77.200,219.603 77.010,219.508 76.725 C 219.321 76.162,218.792 75.990,218.100 76.267 M257.200 76.800 C 257.200 77.020,257.740 77.200,258.400 77.200 C 259.060 77.200,259.600 77.020,259.600 76.800 C 259.600 76.580,259.060 76.400,258.400 76.400 C 257.740 76.400,257.200 76.580,257.200 76.800 M214.098 77.067 C 213.376 77.356,213.901 78.000,214.857 78.000 C 215.304 78.000,215.596 77.787,215.508 77.525 C 215.321 76.962,214.792 76.790,214.098 77.067 M264.400 96.600 C 264.400 111.996,264.505 116.032,264.900 115.900 C 265.631 115.656,265.631 77.544,264.900 77.300 C 264.505 77.168,264.400 81.204,264.400 96.600 M210.800 78.400 C 210.800 78.620,211.160 78.800,211.600 78.800 C 212.040 78.800,212.400 78.620,212.400 78.400 C 212.400 78.180,212.040 78.000,211.600 78.000 C 211.160 78.000,210.800 78.180,210.800 78.400 M208.675 78.658 C 208.153 79.180,208.402 79.600,209.233 79.600 C 209.699 79.600,209.997 79.390,209.908 79.125 C 209.713 78.540,209.046 78.288,208.675 78.658 M39.600 79.943 C 39.600 81.309,40.367 82.095,40.460 80.824 C 40.493 80.371,40.538 79.790,40.560 79.533 C 40.582 79.277,40.375 78.992,40.100 78.900 C 39.773 78.791,39.600 79.153,39.600 79.943 M360.260 79.102 C 359.972 79.569,360.449 81.600,360.847 81.600 C 361.041 81.600,361.200 80.970,361.200 80.200 C 361.200 78.920,360.720 78.359,360.260 79.102 M206.400 80.000 C 206.400 80.220,206.670 80.400,207.000 80.400 C 207.330 80.400,207.600 80.220,207.600 80.000 C 207.600 79.780,207.330 79.600,207.000 79.600 C 206.670 79.600,206.400 79.780,206.400 80.000 M204.675 80.258 C 204.153 80.780,204.402 81.200,205.233 81.200 C 205.699 81.200,205.997 80.990,205.908 80.725 C 205.713 80.140,205.046 79.888,204.675 80.258 M200.267 82.667 C 199.806 83.127,199.975 83.600,200.600 83.600 C 200.930 83.600,201.200 83.330,201.200 83.000 C 201.200 82.375,200.727 82.206,200.267 82.667 M198.656 83.478 C 198.205 83.928,198.381 84.400,199.000 84.400 C 199.330 84.400,199.600 84.231,199.600 84.024 C 199.600 83.519,198.975 83.158,198.656 83.478 M196.700 84.832 C 195.926 85.283,195.759 86.000,196.429 86.000 C 196.664 86.000,197.114 85.743,197.429 85.429 C 198.442 84.415,198.015 84.066,196.700 84.832 M192.681 87.917 C 191.160 89.475,190.891 90.000,191.613 90.000 C 192.351 90.000,194.915 87.155,194.527 86.767 C 194.306 86.546,193.576 87.000,192.681 87.917 M186.870 93.726 C 186.063 94.584,185.710 95.600,186.218 95.600 C 186.611 95.600,188.400 93.647,188.400 93.218 C 188.400 92.538,187.799 92.737,186.870 93.726 M183.982 97.634 C 183.736 98.093,183.631 98.565,183.749 98.682 C 184.026 98.960,185.200 97.785,185.200 97.229 C 185.200 96.505,184.453 96.753,183.982 97.634 M182.678 99.456 C 182.358 99.775,182.719 100.400,183.224 100.400 C 183.431 100.400,183.600 100.130,183.600 99.800 C 183.600 99.181,183.128 99.005,182.678 99.456 M181.867 101.067 C 181.406 101.527,181.575 102.000,182.200 102.000 C 182.530 102.000,182.800 101.730,182.800 101.400 C 182.800 100.775,182.327 100.606,181.867 101.067 M179.478 105.856 C 179.158 106.175,179.519 106.800,180.024 106.800 C 180.231 106.800,180.400 106.530,180.400 106.200 C 180.400 105.581,179.928 105.405,179.478 105.856 M178.800 107.800 C 178.800 108.130,178.980 108.400,179.200 108.400 C 179.420 108.400,179.600 108.130,179.600 107.800 C 179.600 107.470,179.420 107.200,179.200 107.200 C 178.980 107.200,178.800 107.470,178.800 107.800 M178.000 110.200 C 178.000 110.530,178.180 110.800,178.400 110.800 C 178.620 110.800,178.800 110.530,178.800 110.200 C 178.800 109.870,178.620 109.600,178.400 109.600 C 178.180 109.600,178.000 109.870,178.000 110.200 M177.200 112.600 C 177.200 112.930,177.380 113.200,177.600 113.200 C 177.820 113.200,178.000 112.930,178.000 112.600 C 178.000 112.270,177.820 112.000,177.600 112.000 C 177.380 112.000,177.200 112.270,177.200 112.600 M176.200 115.200 C 175.908 115.672,176.287 116.400,176.824 116.400 C 177.031 116.400,177.200 116.040,177.200 115.600 C 177.200 114.756,176.618 114.524,176.200 115.200 M235.700 116.100 C 235.792 116.375,236.167 116.585,236.533 116.567 C 236.900 116.548,237.830 116.503,238.600 116.467 C 240.907 116.357,240.179 115.600,237.767 115.600 C 236.158 115.600,235.580 115.740,235.700 116.100 M231.600 116.800 C 231.600 117.020,231.870 117.200,232.200 117.200 C 232.530 117.200,232.800 117.020,232.800 116.800 C 232.800 116.580,232.530 116.400,232.200 116.400 C 231.870 116.400,231.600 116.580,231.600 116.800 M229.200 117.600 C 229.200 117.820,229.470 118.000,229.800 118.000 C 230.130 118.000,230.400 117.820,230.400 117.600 C 230.400 117.380,230.130 117.200,229.800 117.200 C 229.470 117.200,229.200 117.380,229.200 117.600 M175.441 119.036 C 175.169 119.745,175.449 120.400,176.024 120.400 C 176.231 120.400,176.400 119.950,176.400 119.400 C 176.400 118.281,175.816 118.059,175.441 119.036 M222.000 123.400 C 222.000 123.730,222.180 124.000,222.400 124.000 C 222.620 124.000,222.800 123.730,222.800 123.400 C 222.800 123.070,222.620 122.800,222.400 122.800 C 222.180 122.800,222.000 123.070,222.000 123.400 M174.712 124.300 C 174.488 125.165,174.744 126.000,175.233 126.000 C 175.435 126.000,175.600 125.460,175.600 124.800 C 175.600 123.499,175.006 123.165,174.712 124.300 M220.400 126.600 C 220.400 126.930,220.580 127.200,220.800 127.200 C 221.020 127.200,221.200 126.930,221.200 126.600 C 221.200 126.270,221.020 126.000,220.800 126.000 C 220.580 126.000,220.400 126.270,220.400 126.600 M219.600 129.200 C 219.600 129.640,219.780 130.000,220.000 130.000 C 220.220 130.000,220.400 129.640,220.400 129.200 C 220.400 128.760,220.220 128.400,220.000 128.400 C 219.780 128.400,219.600 128.760,219.600 129.200 M218.800 150.400 L 218.800 167.600 240.776 167.600 C 254.996 167.600,262.840 167.459,263.000 167.200 C 263.164 166.935,256.020 166.800,241.873 166.800 C 224.197 166.800,220.419 166.705,220.040 166.249 C 219.713 165.854,219.588 161.206,219.600 149.949 C 219.610 141.287,219.614 133.975,219.609 133.700 C 219.604 133.425,219.420 133.200,219.200 133.200 C 218.940 133.200,218.800 139.200,218.800 150.400 M154.600 166.794 L 135.400 167.000 135.400 188.967 C 135.400 206.184,135.508 210.969,135.900 211.100 C 136.296 211.232,136.400 206.722,136.400 189.433 L 136.400 167.600 155.600 167.600 C 172.400 167.600,174.800 167.525,174.800 167.000 C 174.800 166.670,174.575 166.442,174.300 166.494 C 174.025 166.546,165.160 166.681,154.600 166.794 M262.000 171.367 C 262.000 172.854,262.754 173.410,262.860 172.000 C 262.893 171.560,262.938 170.990,262.960 170.733 C 262.982 170.477,262.775 170.192,262.500 170.100 C 262.162 169.987,262.000 170.398,262.000 171.367 M261.200 177.767 C 261.200 179.254,261.954 179.810,262.060 178.400 C 262.093 177.960,262.138 177.390,262.160 177.133 C 262.182 176.877,261.975 176.592,261.700 176.500 C 261.362 176.387,261.200 176.798,261.200 177.767 M260.400 184.167 C 260.400 185.654,261.154 186.210,261.260 184.800 C 261.293 184.360,261.338 183.790,261.360 183.533 C 261.382 183.277,261.175 182.992,260.900 182.900 C 260.562 182.787,260.400 183.198,260.400 184.167 M259.600 190.567 C 259.600 192.054,260.354 192.610,260.460 191.200 C 260.493 190.760,260.538 190.190,260.560 189.933 C 260.582 189.677,260.375 189.392,260.100 189.300 C 259.762 189.187,259.600 189.598,259.600 190.567 M258.800 196.967 C 258.800 198.454,259.554 199.010,259.660 197.600 C 259.693 197.160,259.738 196.590,259.760 196.333 C 259.782 196.077,259.575 195.792,259.300 195.700 C 258.962 195.587,258.800 195.998,258.800 196.967 M258.000 203.143 C 258.000 204.509,258.767 205.295,258.860 204.024 C 258.893 203.571,258.938 202.990,258.960 202.733 C 258.982 202.477,258.775 202.192,258.500 202.100 C 258.173 201.991,258.000 202.353,258.000 203.143 M257.200 209.600 C 257.200 210.260,257.359 210.800,257.553 210.800 C 257.978 210.800,258.446 209.198,258.157 208.731 C 257.708 208.005,257.200 208.467,257.200 209.600 M173.600 211.200 C 173.600 211.420,173.870 211.600,174.200 211.600 C 174.530 211.600,174.800 211.420,174.800 211.200 C 174.800 210.980,174.530 210.800,174.200 210.800 C 173.870 210.800,173.600 210.980,173.600 211.200 M218.800 268.000 C 218.800 305.867,218.935 325.200,219.200 325.200 C 219.465 325.200,219.602 306.163,219.605 268.900 C 219.608 237.935,219.719 212.195,219.852 211.700 C 220.029 211.038,219.922 210.800,219.447 210.800 C 218.854 210.800,218.800 215.588,218.800 268.000 M39.891 319.442 C 39.465 319.869,39.535 322.000,39.976 322.000 C 40.183 322.000,40.446 321.850,40.559 321.666 C 40.861 321.178,40.236 319.098,39.891 319.442 M360.400 320.176 C 360.400 320.739,360.580 321.200,360.800 321.200 C 361.020 321.200,361.200 320.851,361.200 320.424 C 361.200 319.997,361.020 319.536,360.800 319.400 C 360.573 319.260,360.400 319.596,360.400 320.176 M40.400 324.400 C 40.400 324.916,40.603 325.199,40.900 325.100 C 41.175 325.008,41.400 324.693,41.400 324.400 C 41.400 324.107,41.175 323.792,40.900 323.700 C 40.603 323.601,40.400 323.884,40.400 324.400 M359.400 324.000 C 359.108 324.472,359.487 325.200,360.024 325.200 C 360.231 325.200,360.400 324.840,360.400 324.400 C 360.400 323.556,359.818 323.324,359.400 324.000 M42.000 329.400 C 42.000 329.730,42.180 330.000,42.400 330.000 C 42.620 330.000,42.800 329.730,42.800 329.400 C 42.800 329.070,42.620 328.800,42.400 328.800 C 42.180 328.800,42.000 329.070,42.000 329.400 M358.000 329.400 C 358.000 329.730,358.180 330.000,358.400 330.000 C 358.620 330.000,358.800 329.730,358.800 329.400 C 358.800 329.070,358.620 328.800,358.400 328.800 C 358.180 328.800,358.000 329.070,358.000 329.400 M42.800 331.800 C 42.800 332.167,42.994 332.402,43.230 332.323 C 43.467 332.245,43.660 332.009,43.660 331.800 C 43.660 331.591,43.467 331.356,43.230 331.277 C 42.994 331.198,42.800 331.433,42.800 331.800 M357.078 331.456 C 356.758 331.775,357.119 332.400,357.624 332.400 C 357.831 332.400,358.000 332.130,358.000 331.800 C 358.000 331.181,357.528 331.005,357.078 331.456 M43.600 333.400 C 43.600 333.730,43.780 334.000,44.000 334.000 C 44.220 334.000,44.400 333.730,44.400 333.400 C 44.400 333.070,44.220 332.800,44.000 332.800 C 43.780 332.800,43.600 333.070,43.600 333.400 M356.400 333.400 C 356.400 333.730,356.580 334.000,356.800 334.000 C 357.020 334.000,357.200 333.730,357.200 333.400 C 357.200 333.070,357.020 332.800,356.800 332.800 C 356.580 332.800,356.400 333.070,356.400 333.400 M44.400 335.000 C 44.400 335.330,44.580 335.600,44.800 335.600 C 45.020 335.600,45.200 335.330,45.200 335.000 C 45.200 334.670,45.020 334.400,44.800 334.400 C 44.580 334.400,44.400 334.670,44.400 335.000 M355.600 335.000 C 355.600 335.330,355.780 335.600,356.000 335.600 C 356.220 335.600,356.400 335.330,356.400 335.000 C 356.400 334.670,356.220 334.400,356.000 334.400 C 355.780 334.400,355.600 334.670,355.600 335.000 M45.200 336.600 C 45.200 336.967,45.394 337.202,45.630 337.123 C 45.867 337.045,46.060 336.809,46.060 336.600 C 46.060 336.391,45.867 336.156,45.630 336.077 C 45.394 335.998,45.200 336.233,45.200 336.600 M354.678 336.256 C 354.358 336.575,354.719 337.200,355.224 337.200 C 355.431 337.200,355.600 336.930,355.600 336.600 C 355.600 335.981,355.128 335.805,354.678 336.256 M46.000 338.029 C 46.000 338.530,47.161 339.772,47.403 339.530 C 47.494 339.439,47.464 338.968,47.337 338.483 C 47.106 337.598,46.000 337.223,46.000 338.029 M47.600 340.429 C 47.600 340.989,48.775 342.159,49.056 341.878 C 49.452 341.481,48.756 340.000,48.173 340.000 C 47.858 340.000,47.600 340.193,47.600 340.429 M352.080 340.480 C 351.588 340.972,351.418 342.000,351.829 342.000 C 352.221 342.000,353.200 340.878,353.200 340.429 C 353.200 339.861,352.675 339.885,352.080 340.480 M50.000 343.580 C 50.000 344.185,52.791 346.942,53.095 346.638 C 53.381 346.352,51.167 343.522,50.477 343.292 C 50.214 343.205,50.000 343.334,50.000 343.580 M348.657 344.832 C 348.028 345.721,347.611 346.545,347.730 346.664 C 348.007 346.940,350.800 344.164,350.800 343.613 C 350.800 342.702,349.737 343.307,348.657 344.832 M54.000 347.813 C 54.000 348.206,56.768 350.800,57.187 350.800 C 57.989 350.800,57.585 350.044,56.300 349.142 C 55.585 348.640,54.940 348.087,54.867 347.914 C 54.718 347.563,54.000 347.480,54.000 347.813 M345.800 348.027 C 345.580 348.240,344.905 348.784,344.300 349.236 C 343.183 350.071,342.863 350.800,343.613 350.800 C 344.032 350.800,346.800 348.206,346.800 347.813 C 346.800 347.480,346.242 347.600,345.800 348.027 M58.800 351.829 C 58.800 352.221,59.922 353.200,60.371 353.200 C 61.074 353.200,60.858 352.459,60.026 352.014 C 59.154 351.547,58.800 351.494,58.800 351.829 M340.700 352.032 C 339.926 352.483,339.759 353.200,340.429 353.200 C 340.664 353.200,341.114 352.943,341.429 352.629 C 342.442 351.615,342.015 351.266,340.700 352.032 M62.256 353.878 C 61.805 354.328,61.981 354.800,62.600 354.800 C 62.930 354.800,63.200 354.631,63.200 354.424 C 63.200 353.919,62.575 353.558,62.256 353.878 M337.856 353.878 C 337.405 354.328,337.581 354.800,338.200 354.800 C 338.530 354.800,338.800 354.631,338.800 354.424 C 338.800 353.919,338.175 353.558,337.856 353.878 M68.400 357.600 C 68.400 357.820,68.670 358.000,69.000 358.000 C 69.330 358.000,69.600 357.820,69.600 357.600 C 69.600 357.380,69.330 357.200,69.000 357.200 C 68.670 357.200,68.400 357.380,68.400 357.600 M331.200 357.600 C 331.200 357.820,331.470 358.000,331.800 358.000 C 332.130 358.000,332.400 357.820,332.400 357.600 C 332.400 357.380,332.130 357.200,331.800 357.200 C 331.470 357.200,331.200 357.380,331.200 357.600 M70.275 357.858 C 69.753 358.380,70.002 358.800,70.833 358.800 C 71.299 358.800,71.597 358.590,71.508 358.325 C 71.313 357.740,70.646 357.488,70.275 357.858 M329.475 357.858 C 328.953 358.380,329.202 358.800,330.033 358.800 C 330.499 358.800,330.797 358.590,330.708 358.325 C 330.513 357.740,329.846 357.488,329.475 357.858 M72.639 358.694 C 72.158 359.176,72.420 359.600,73.200 359.600 C 73.640 359.600,74.000 359.439,74.000 359.243 C 74.000 358.793,72.960 358.374,72.639 358.694 M327.300 358.687 C 326.511 358.970,326.718 359.600,327.600 359.600 C 328.040 359.600,328.400 359.431,328.400 359.224 C 328.400 358.712,327.905 358.470,327.300 358.687 M75.039 359.494 C 74.558 359.976,74.820 360.400,75.600 360.400 C 76.040 360.400,76.400 360.239,76.400 360.043 C 76.400 359.593,75.360 359.174,75.039 359.494 M324.900 359.487 C 324.111 359.770,324.318 360.400,325.200 360.400 C 325.640 360.400,326.000 360.231,326.000 360.024 C 326.000 359.512,325.505 359.270,324.900 359.487 M78.800 360.800 C 78.800 361.020,79.250 361.200,79.800 361.200 C 80.350 361.200,80.800 361.020,80.800 360.800 C 80.800 360.580,80.350 360.400,79.800 360.400 C 79.250 360.400,78.800 360.580,78.800 360.800 M320.000 360.800 C 320.000 361.020,320.450 361.200,321.000 361.200 C 321.550 361.200,322.000 361.020,322.000 360.800 C 322.000 360.580,321.550 360.400,321.000 360.400 C 320.450 360.400,320.000 360.580,320.000 360.800 " stroke="none" fill="#d5dce8" fill-rule="evenodd"></path><path id="path1" d="M84.937 40.159 C 84.279 40.910,80.474 41.359,79.763 40.770 C 79.318 40.400,79.200 40.438,79.200 40.951 C 79.200 41.562,78.893 41.661,76.590 41.795 C 76.144 41.820,75.604 41.943,75.390 42.068 C 75.175 42.192,74.010 42.611,72.800 42.999 C 60.362 46.986,49.170 57.393,44.397 69.409 C 43.704 71.151,43.026 72.759,42.888 72.981 C 42.750 73.204,42.602 73.659,42.559 73.993 C 42.516 74.327,42.197 75.624,41.852 76.876 C 41.506 78.128,41.100 80.619,40.951 82.412 C 40.771 84.574,40.497 85.741,40.140 85.879 C 39.332 86.188,39.333 315.412,40.141 315.722 C 40.478 315.851,40.785 316.930,40.954 318.583 C 41.104 320.043,41.518 322.354,41.875 323.719 C 42.232 325.083,42.558 326.470,42.601 326.800 C 42.683 327.440,42.913 327.991,45.212 333.033 C 50.966 345.656,63.963 356.366,76.727 359.001 C 77.457 359.152,78.153 359.533,78.274 359.848 C 78.429 360.253,78.638 360.300,78.988 360.010 C 79.651 359.460,84.305 359.963,85.003 360.660 C 85.809 361.466,314.991 361.466,315.797 360.660 C 316.495 359.963,321.149 359.460,321.812 360.010 C 322.162 360.300,322.371 360.253,322.526 359.848 C 322.647 359.533,323.343 359.152,324.073 359.001 C 336.837 356.366,349.834 345.656,355.588 333.033 C 357.912 327.936,358.132 327.425,358.181 327.000 C 358.442 324.751,359.349 322.000,359.828 322.000 C 360.492 322.000,360.572 321.532,360.005 320.965 C 359.479 320.439,360.124 315.092,360.738 314.887 C 361.437 314.654,361.402 86.134,360.703 85.901 C 360.405 85.802,360.012 84.233,359.720 81.968 C 359.452 79.895,359.037 77.390,358.796 76.400 C 358.556 75.410,358.315 74.327,358.261 73.993 C 358.207 73.659,358.050 73.204,357.912 72.981 C 357.774 72.759,357.096 71.151,356.403 69.409 C 351.535 57.154,340.268 46.815,327.400 42.795 C 326.520 42.520,325.625 42.193,325.410 42.068 C 325.196 41.944,324.656 41.820,324.210 41.795 C 321.907 41.661,321.600 41.562,321.600 40.951 C 321.600 40.438,321.482 40.400,321.037 40.770 C 320.323 41.362,316.571 40.914,315.802 40.145 C 315.002 39.344,85.639 39.358,84.937 40.159 M239.501 75.100 C 239.710 75.729,242.651 75.765,243.035 75.143 C 243.474 74.432,253.660 75.041,254.244 75.813 C 254.754 76.487,257.025 76.607,257.413 75.979 C 257.782 75.383,263.282 75.940,263.834 76.630 C 264.164 77.043,264.379 77.061,264.734 76.706 C 265.905 75.535,266.006 77.273,265.904 96.824 L 265.800 116.600 251.000 116.836 C 242.860 116.966,236.029 116.921,235.820 116.736 C 235.238 116.221,234.800 116.335,234.800 117.000 C 234.800 117.373,234.384 117.623,233.700 117.661 C 231.978 117.756,231.947 117.766,229.188 119.097 C 224.892 121.169,221.314 125.898,220.947 129.988 C 220.878 130.762,220.506 131.626,220.120 131.908 C 219.538 132.333,219.503 132.552,219.910 133.204 C 220.275 133.790,220.400 138.058,220.400 149.995 L 220.400 166.000 241.567 166.000 C 253.209 166.000,263.019 166.109,263.367 166.243 C 264.212 166.567,264.230 169.137,263.390 169.459 C 262.925 169.638,262.887 169.823,263.230 170.236 C 263.859 170.995,263.303 175.585,262.547 175.876 C 262.117 176.041,262.089 176.225,262.430 176.636 C 263.059 177.395,262.503 181.985,261.747 182.276 C 261.317 182.441,261.289 182.625,261.630 183.036 C 262.259 183.795,261.703 188.385,260.947 188.676 C 260.517 188.841,260.489 189.025,260.830 189.436 C 261.481 190.220,260.909 194.800,260.161 194.800 C 259.487 194.800,259.436 195.276,260.044 195.884 C 260.697 196.537,260.098 201.200,259.361 201.200 C 258.687 201.200,258.636 201.676,259.244 202.284 C 259.897 202.937,259.298 207.600,258.561 207.600 C 257.913 207.600,257.811 208.236,258.400 208.600 C 258.845 208.875,258.931 210.393,258.557 211.367 C 258.341 211.932,256.275 212.000,239.357 212.000 L 220.400 212.000 220.400 268.720 C 220.400 312.302,220.289 325.551,219.920 325.920 C 219.175 326.665,174.670 326.607,174.050 325.861 C 173.726 325.470,173.575 309.755,173.501 268.761 L 173.400 212.200 154.200 212.000 L 135.000 211.800 134.897 189.445 C 134.822 173.268,134.918 166.939,135.246 166.545 C 135.616 166.099,139.141 166.000,154.649 166.000 L 173.600 166.000 173.600 146.829 C 173.600 130.139,173.679 127.578,174.213 127.044 C 174.693 126.564,174.727 126.272,174.371 125.702 C 173.743 124.696,175.569 113.550,176.408 113.266 C 176.627 113.192,176.722 112.998,176.621 112.834 C 176.248 112.230,178.515 105.877,179.524 104.700 C 179.854 104.315,179.990 104.000,179.825 104.000 C 179.661 104.000,180.192 102.785,181.006 101.300 C 187.231 89.934,199.141 80.529,211.400 77.297 C 219.047 75.280,224.216 74.456,224.902 75.142 C 225.448 75.688,228.400 75.762,228.400 75.229 C 228.400 74.294,239.191 74.169,239.501 75.100 " stroke="none" fill="#3c5c9c" fill-rule="evenodd"></path><path id="path2" d="M81.600 40.000 C 81.600 40.220,81.195 40.414,80.700 40.432 C 80.205 40.449,80.033 40.557,80.317 40.671 C 81.080 40.977,82.872 40.440,82.593 39.988 C 82.279 39.480,81.600 39.488,81.600 40.000 M318.207 39.988 C 317.928 40.440,319.720 40.977,320.483 40.671 C 320.767 40.557,320.595 40.449,320.100 40.432 C 319.605 40.414,319.200 40.220,319.200 40.000 C 319.200 39.488,318.521 39.480,318.207 39.988 M77.200 40.772 C 77.200 40.977,76.795 41.230,76.300 41.336 C 75.672 41.469,75.754 41.508,76.569 41.463 C 77.635 41.406,78.641 40.400,77.633 40.400 C 77.395 40.400,77.200 40.567,77.200 40.772 M322.898 40.900 C 322.988 41.175,323.588 41.429,324.231 41.463 C 325.046 41.508,325.128 41.469,324.500 41.336 C 324.005 41.230,323.600 40.977,323.600 40.772 C 323.600 40.567,323.405 40.400,323.167 40.400 C 322.928 40.400,322.807 40.625,322.898 40.900 M73.247 41.855 C 72.769 42.395,72.791 42.460,73.414 42.339 C 73.810 42.263,74.209 41.975,74.300 41.700 C 74.530 41.010,73.916 41.100,73.247 41.855 M326.500 41.700 C 326.591 41.975,326.999 42.264,327.405 42.343 C 328.083 42.475,328.091 42.434,327.500 41.843 C 326.732 41.075,326.270 41.008,326.500 41.700 M68.884 43.415 C 68.460 43.896,68.469 44.000,68.935 44.000 C 69.247 44.000,69.726 43.730,70.000 43.400 C 70.684 42.576,69.612 42.591,68.884 43.415 M330.800 43.400 C 331.074 43.730,331.591 43.979,331.949 43.954 C 332.498 43.914,332.491 43.879,331.900 43.724 C 331.515 43.624,331.200 43.375,331.200 43.171 C 331.200 42.967,330.998 42.800,330.751 42.800 C 330.441 42.800,330.456 42.985,330.800 43.400 M64.400 45.600 C 64.400 45.820,64.149 46.000,63.843 46.000 C 63.536 46.000,63.191 46.246,63.076 46.547 C 62.906 46.988,63.051 47.008,63.830 46.647 C 64.648 46.267,65.217 45.200,64.600 45.200 C 64.490 45.200,64.400 45.380,64.400 45.600 M336.400 46.285 C 336.730 46.407,337.229 46.689,337.509 46.910 C 337.890 47.212,337.955 47.148,337.766 46.657 C 337.628 46.295,337.129 46.014,336.657 46.032 C 336.072 46.053,335.990 46.134,336.400 46.285 M61.260 47.180 C 61.432 47.696,61.981 47.788,62.030 47.310 C 62.047 47.151,61.844 46.948,61.580 46.860 C 61.316 46.772,61.172 46.916,61.260 47.180 M338.617 47.172 C 338.344 47.614,338.975 48.092,339.344 47.722 C 339.725 47.342,339.654 46.800,339.224 46.800 C 339.017 46.800,338.744 46.968,338.617 47.172 M341.384 49.438 C 342.263 50.081,342.800 50.160,342.800 49.647 C 342.800 49.452,342.308 49.199,341.708 49.084 C 340.686 48.889,340.665 48.912,341.384 49.438 M55.498 52.214 C 54.913 52.756,54.157 53.200,53.817 53.200 C 53.478 53.200,53.200 53.483,53.200 53.829 C 53.200 54.174,52.921 54.736,52.581 55.076 C 52.240 55.417,52.030 55.763,52.112 55.846 C 52.195 55.928,53.295 54.988,54.557 53.757 C 56.805 51.562,57.591 50.273,55.498 52.214 M344.000 51.364 C 344.000 51.688,348.522 56.011,348.688 55.846 C 348.770 55.763,348.560 55.417,348.219 55.076 C 347.879 54.736,347.600 54.174,347.600 53.829 C 347.600 53.467,347.261 53.200,346.800 53.200 C 346.360 53.200,345.994 53.065,345.987 52.900 C 345.974 52.568,344.000 51.043,344.000 51.364 M49.084 59.092 C 48.889 60.114,48.912 60.135,49.438 59.416 C 50.081 58.537,50.160 58.000,49.647 58.000 C 49.452 58.000,49.199 58.492,49.084 59.092 M350.800 58.324 C 350.800 58.501,351.053 58.993,351.362 59.416 C 351.888 60.135,351.911 60.114,351.716 59.092 C 351.529 58.118,350.800 57.506,350.800 58.324 M46.800 61.800 C 46.800 62.130,46.980 62.400,47.200 62.400 C 47.420 62.400,47.600 62.130,47.600 61.800 C 47.600 61.470,47.420 61.200,47.200 61.200 C 46.980 61.200,46.800 61.470,46.800 61.800 M353.200 61.800 C 353.200 62.130,353.380 62.400,353.600 62.400 C 353.820 62.400,354.000 62.130,354.000 61.800 C 354.000 61.470,353.820 61.200,353.600 61.200 C 353.380 61.200,353.200 61.470,353.200 61.800 M46.500 63.065 C 46.225 63.176,46.000 63.507,46.000 63.800 C 46.000 64.093,45.775 64.424,45.500 64.535 C 45.159 64.673,45.191 64.746,45.600 64.765 C 45.930 64.781,46.408 64.345,46.662 63.797 C 46.917 63.249,47.097 62.814,47.062 62.832 C 47.028 62.849,46.775 62.954,46.500 63.065 M354.153 63.830 C 354.399 64.360,354.870 64.781,355.200 64.765 C 355.609 64.746,355.641 64.673,355.300 64.535 C 355.025 64.424,354.800 64.098,354.800 63.809 C 354.800 63.521,354.554 63.191,354.253 63.076 C 353.812 62.906,353.792 63.051,354.153 63.830 M44.432 67.300 C 44.414 67.685,44.220 68.000,44.000 68.000 C 43.780 68.000,43.600 68.219,43.600 68.486 C 43.600 68.800,43.828 68.744,44.246 68.325 C 44.602 67.969,44.796 67.436,44.678 67.139 C 44.531 66.770,44.453 66.821,44.432 67.300 M356.046 67.276 C 356.021 67.648,356.180 68.064,356.400 68.200 C 356.620 68.336,356.800 68.797,356.800 69.224 C 356.800 69.708,357.063 69.988,357.500 69.968 C 357.918 69.950,357.999 69.856,357.700 69.735 C 357.425 69.624,357.200 69.188,357.200 68.767 C 357.200 68.345,357.033 68.000,356.829 68.000 C 356.625 68.000,356.376 67.685,356.276 67.300 C 356.111 66.669,356.088 66.667,356.046 67.276 M41.600 74.000 C 41.283 74.196,41.156 74.489,41.318 74.652 C 41.481 74.814,41.823 74.737,42.080 74.480 C 42.337 74.223,42.463 73.930,42.362 73.828 C 42.260 73.727,41.917 73.804,41.600 74.000 M358.492 74.075 C 358.691 74.673,359.600 75.002,359.600 74.476 C 359.600 74.261,359.315 73.976,358.967 73.843 C 358.577 73.693,358.394 73.782,358.492 74.075 M222.100 75.465 C 221.404 75.746,221.473 76.400,222.200 76.400 C 222.530 76.400,222.800 76.233,222.800 76.029 C 222.800 75.825,223.115 75.576,223.500 75.476 C 224.079 75.325,224.061 75.290,223.400 75.278 C 222.960 75.270,222.375 75.354,222.100 75.465 M247.300 75.494 C 248.345 75.576,249.200 75.814,249.200 76.022 C 249.200 76.230,249.650 76.400,250.200 76.400 C 250.750 76.400,251.200 76.241,251.200 76.047 C 251.200 75.517,249.645 75.203,247.400 75.278 L 245.400 75.344 247.300 75.494 M41.254 76.267 C 41.225 76.743,40.975 77.214,40.700 77.312 C 40.425 77.410,40.338 77.638,40.507 77.819 C 41.013 78.361,41.681 77.360,41.488 76.346 C 41.322 75.467,41.305 75.461,41.254 76.267 M359.246 76.476 C 359.200 77.547,359.815 78.318,360.315 77.818 C 360.459 77.674,360.378 77.431,360.135 77.278 C 359.892 77.125,359.603 76.640,359.493 76.200 C 359.337 75.575,359.283 75.636,359.246 76.476 M216.984 76.427 C 216.528 77.164,217.132 77.325,217.810 76.648 C 218.369 76.088,218.375 76.000,217.852 76.000 C 217.519 76.000,217.129 76.192,216.984 76.427 M258.500 76.287 C 259.105 76.378,259.600 76.621,259.600 76.827 C 259.600 77.032,260.050 77.200,260.600 77.200 C 261.150 77.200,261.600 77.043,261.600 76.850 C 261.600 76.455,259.539 75.969,258.250 76.060 C 257.637 76.103,257.707 76.166,258.500 76.287 M210.667 77.867 C 210.520 78.013,210.403 78.328,210.406 78.567 C 210.410 78.860,210.507 78.853,210.706 78.546 C 210.868 78.297,211.360 78.003,211.800 77.893 C 212.574 77.699,212.573 77.691,211.767 77.646 C 211.308 77.621,210.813 77.720,210.667 77.867 M207.800 78.800 C 207.664 79.020,207.223 79.200,206.819 79.200 C 206.416 79.200,205.982 79.470,205.855 79.800 C 205.729 80.130,205.799 80.400,206.013 80.400 C 206.226 80.400,206.400 80.220,206.400 80.000 C 206.400 79.780,206.831 79.600,207.357 79.600 C 207.884 79.600,208.418 79.330,208.545 79.000 C 208.800 78.334,208.190 78.170,207.800 78.800 M40.446 80.724 C 40.421 81.232,40.220 81.536,40.000 81.400 C 39.780 81.264,39.600 81.433,39.600 81.776 C 39.600 82.119,39.786 82.400,40.013 82.400 C 40.563 82.400,40.912 81.419,40.680 80.523 C 40.535 79.964,40.482 80.009,40.446 80.724 M360.054 80.667 C 359.986 81.753,360.373 82.800,360.843 82.800 C 361.039 82.800,361.200 82.530,361.200 82.200 C 361.200 81.870,361.033 81.600,360.828 81.600 C 360.623 81.600,360.378 81.195,360.282 80.700 C 360.112 79.814,360.108 79.813,360.054 80.667 M201.039 81.938 C 200.900 82.161,200.982 82.465,201.220 82.612 C 201.835 82.993,202.232 82.472,201.718 81.958 C 201.431 81.671,201.207 81.664,201.039 81.938 M199.467 82.667 C 199.084 83.049,199.138 83.600,199.557 83.600 C 199.754 83.600,200.018 83.330,200.145 83.000 C 200.379 82.390,199.953 82.181,199.467 82.667 M197.600 83.993 C 196.667 84.716,196.658 84.753,197.472 84.545 C 197.952 84.422,198.441 84.069,198.560 83.761 C 198.832 83.052,198.806 83.058,197.600 83.993 M195.648 85.500 C 195.433 85.885,195.113 86.142,194.938 86.070 C 194.763 85.999,194.556 86.134,194.477 86.370 C 194.177 87.270,195.493 86.753,195.927 85.800 C 196.446 84.662,196.241 84.441,195.648 85.500 M192.207 87.993 C 191.352 88.869,190.730 89.645,190.826 89.718 C 190.922 89.791,191.698 89.074,192.552 88.125 C 194.501 85.959,194.277 85.873,192.207 87.993 M186.441 93.814 C 185.759 94.592,185.200 95.427,185.200 95.670 C 185.200 95.913,184.885 96.360,184.500 96.662 C 183.891 97.141,183.943 97.152,184.900 96.742 C 185.585 96.449,186.000 95.965,186.000 95.458 C 186.000 95.010,186.484 94.139,187.075 93.522 C 187.666 92.905,188.045 92.400,187.916 92.400 C 187.788 92.400,187.124 93.036,186.441 93.814 M182.953 98.570 C 182.603 99.325,182.616 99.492,183.014 99.339 C 183.544 99.136,184.119 97.598,183.663 97.603 C 183.518 97.605,183.199 98.040,182.953 98.570 M181.039 101.938 C 180.900 102.161,180.982 102.465,181.220 102.612 C 181.835 102.993,182.232 102.472,181.718 101.958 C 181.431 101.671,181.207 101.664,181.039 101.938 M177.750 109.387 C 177.626 109.710,177.617 110.205,177.731 110.487 C 177.860 110.809,177.949 110.740,177.968 110.300 C 177.986 109.915,178.180 109.600,178.400 109.600 C 178.620 109.600,178.800 109.420,178.800 109.200 C 178.800 108.585,178.003 108.726,177.750 109.387 M176.267 114.267 C 175.781 114.753,175.990 115.179,176.600 114.945 C 176.930 114.818,177.200 114.554,177.200 114.357 C 177.200 113.938,176.649 113.884,176.267 114.267 M240.000 115.961 C 240.000 116.176,239.415 116.431,238.700 116.527 C 237.985 116.624,238.732 116.635,240.360 116.552 C 241.989 116.468,248.334 116.400,254.460 116.400 C 260.996 116.400,265.600 116.247,265.600 116.031 C 265.600 115.814,260.317 115.643,252.800 115.617 C 244.716 115.588,240.000 115.715,240.000 115.961 M232.413 117.091 C 231.889 117.682,231.903 117.723,232.546 117.476 C 232.942 117.324,233.341 117.200,233.433 117.200 C 233.525 117.200,233.600 117.020,233.600 116.800 C 233.600 116.212,233.081 116.339,232.413 117.091 M175.467 117.867 C 175.320 118.013,175.200 118.386,175.200 118.695 C 175.200 119.161,175.303 119.154,175.800 118.657 C 176.130 118.327,176.400 117.954,176.400 117.829 C 176.400 117.515,175.793 117.540,175.467 117.867 M227.677 118.430 C 227.755 118.666,227.991 118.860,228.200 118.860 C 228.409 118.860,228.645 118.666,228.723 118.430 C 228.802 118.194,228.567 118.000,228.200 118.000 C 227.833 118.000,227.598 118.194,227.677 118.430 M226.832 119.100 C 226.814 119.375,226.440 119.600,226.000 119.600 C 225.560 119.600,225.200 119.780,225.200 120.000 C 225.200 120.220,225.425 120.397,225.700 120.394 C 226.566 120.383,227.306 119.714,227.080 119.146 C 226.927 118.759,226.854 118.746,226.832 119.100 M174.569 122.983 C 174.433 123.523,174.415 124.198,174.529 124.483 C 174.662 124.812,174.748 124.746,174.768 124.300 C 174.786 123.915,174.980 123.600,175.200 123.600 C 175.420 123.600,175.600 123.240,175.600 122.800 C 175.600 121.673,174.865 121.803,174.569 122.983 M222.806 123.100 C 222.811 123.957,222.898 124.068,223.200 123.600 C 223.706 122.817,223.706 122.000,223.200 122.000 C 222.980 122.000,222.803 122.495,222.806 123.100 M220.446 129.267 C 220.421 129.633,220.175 130.014,219.900 130.112 C 219.625 130.210,219.538 130.438,219.707 130.619 C 220.177 131.122,220.899 130.179,220.684 129.342 C 220.528 128.736,220.484 128.722,220.446 129.267 M219.782 150.200 C 219.782 159.000,219.835 162.543,219.900 158.073 C 219.964 153.604,219.964 146.404,219.899 142.073 C 219.835 137.743,219.782 141.400,219.782 150.200 M154.816 166.300 C 144.375 166.359,135.699 166.541,135.536 166.704 C 135.373 166.867,144.036 166.910,154.787 166.800 C 165.538 166.690,174.469 166.465,174.634 166.300 C 174.799 166.135,174.678 166.043,174.367 166.096 C 174.055 166.149,165.257 166.241,154.816 166.300 M241.721 166.698 C 255.814 166.769,263.158 166.944,262.998 167.203 C 262.863 167.422,262.958 167.600,263.210 167.600 C 263.461 167.600,263.592 167.375,263.500 167.100 C 263.370 166.708,258.661 166.599,241.767 166.595 L 220.200 166.589 241.721 166.698 M262.832 171.900 C 262.814 172.395,262.620 172.800,262.400 172.800 C 262.180 172.800,262.000 173.070,262.000 173.400 C 262.000 173.730,262.177 174.000,262.392 174.000 C 262.873 174.000,263.356 172.229,263.071 171.517 C 262.957 171.233,262.849 171.405,262.832 171.900 M262.032 178.300 C 262.014 178.795,261.820 179.200,261.600 179.200 C 261.380 179.200,261.200 179.470,261.200 179.800 C 261.200 180.130,261.377 180.400,261.592 180.400 C 262.073 180.400,262.556 178.629,262.271 177.917 C 262.157 177.633,262.049 177.805,262.032 178.300 M261.232 184.700 C 261.214 185.195,261.020 185.600,260.800 185.600 C 260.580 185.600,260.400 185.870,260.400 186.200 C 260.400 186.530,260.577 186.800,260.792 186.800 C 261.273 186.800,261.756 185.029,261.471 184.317 C 261.357 184.033,261.249 184.205,261.232 184.700 M260.432 191.100 C 260.414 191.595,260.220 192.000,260.000 192.000 C 259.780 192.000,259.600 192.270,259.600 192.600 C 259.600 192.930,259.777 193.200,259.992 193.200 C 260.473 193.200,260.956 191.429,260.671 190.717 C 260.557 190.433,260.449 190.605,260.432 191.100 M259.632 197.500 C 259.614 197.995,259.420 198.400,259.200 198.400 C 258.980 198.400,258.800 198.670,258.800 199.000 C 258.800 199.330,258.977 199.600,259.192 199.600 C 259.673 199.600,260.156 197.829,259.871 197.117 C 259.757 196.833,259.649 197.005,259.632 197.500 M258.832 203.924 C 258.814 204.432,258.620 204.736,258.400 204.600 C 258.180 204.464,258.000 204.723,258.000 205.176 C 258.000 205.629,258.177 206.000,258.392 206.000 C 258.873 206.000,259.356 204.229,259.071 203.517 C 258.957 203.233,258.849 203.416,258.832 203.924 M258.046 210.100 C 258.003 210.756,256.813 210.800,239.047 210.800 L 220.093 210.800 219.852 211.700 C 219.719 212.195,219.608 237.920,219.605 268.867 C 219.601 313.502,219.497 325.175,219.100 325.335 C 218.801 325.456,218.881 325.550,219.299 325.568 C 219.960 325.598,220.003 322.556,220.099 268.700 L 220.200 211.800 239.067 211.600 C 258.407 211.395,258.604 211.380,258.282 210.131 C 258.111 209.469,258.088 209.466,258.046 210.100 M135.200 211.214 C 135.200 211.435,142.925 211.628,154.300 211.692 C 164.805 211.752,173.715 211.954,174.100 212.143 C 174.552 212.364,174.800 212.328,174.800 212.043 C 174.800 211.799,174.530 211.600,174.200 211.600 C 173.870 211.600,173.600 211.415,173.600 211.190 C 173.600 210.914,167.280 210.790,154.400 210.811 C 142.909 210.831,135.200 210.993,135.200 211.214 M39.600 318.990 C 39.600 319.352,39.767 319.544,39.971 319.418 C 40.176 319.291,40.429 319.596,40.535 320.094 C 40.671 320.735,40.708 320.658,40.663 319.831 C 40.598 318.618,39.600 317.830,39.600 318.990 M360.154 318.977 C 360.032 319.294,360.017 319.879,360.120 320.277 C 360.265 320.836,360.318 320.791,360.354 320.076 C 360.379 319.568,360.580 319.264,360.800 319.400 C 361.020 319.536,361.200 319.367,361.200 319.024 C 361.200 318.239,360.449 318.206,360.154 318.977 M40.400 323.124 C 40.400 323.339,40.685 323.624,41.033 323.757 C 41.423 323.907,41.606 323.818,41.508 323.525 C 41.309 322.927,40.400 322.598,40.400 323.124 M359.467 323.067 C 358.981 323.553,359.190 323.979,359.800 323.745 C 360.130 323.618,360.400 323.354,360.400 323.157 C 360.400 322.738,359.849 322.684,359.467 323.067 M41.200 326.324 C 41.200 326.539,41.485 326.824,41.833 326.957 C 42.223 327.107,42.406 327.018,42.308 326.725 C 42.109 326.127,41.200 325.798,41.200 326.324 M43.600 332.376 C 43.600 332.609,43.780 332.800,44.000 332.800 C 44.220 332.800,44.400 333.160,44.400 333.600 C 44.400 334.040,44.580 334.400,44.800 334.400 C 45.020 334.400,45.200 334.741,45.200 335.157 C 45.200 335.574,45.445 336.008,45.744 336.123 C 46.101 336.260,45.952 335.659,45.309 334.368 C 44.339 332.422,43.600 331.560,43.600 332.376 M356.544 332.473 C 355.370 334.316,354.551 336.317,355.050 336.125 C 355.353 336.009,355.600 335.574,355.600 335.157 C 355.600 334.741,355.780 334.400,356.000 334.400 C 356.220 334.400,356.400 334.055,356.400 333.633 C 356.400 333.212,356.625 332.786,356.900 332.688 C 357.175 332.590,357.283 332.383,357.140 332.228 C 356.997 332.073,356.729 332.184,356.544 332.473 M354.000 337.400 C 354.000 337.730,354.180 338.000,354.400 338.000 C 354.620 338.000,354.800 337.730,354.800 337.400 C 354.800 337.070,354.620 336.800,354.400 336.800 C 354.180 336.800,354.000 337.070,354.000 337.400 M47.332 338.567 C 47.479 338.951,47.600 339.431,47.600 339.633 C 47.600 339.835,47.763 340.000,47.963 340.000 C 48.428 340.000,48.037 338.470,47.484 338.128 C 47.220 337.965,47.164 338.128,47.332 338.567 M352.800 338.797 C 352.800 339.015,352.163 340.028,351.384 341.048 C 349.918 342.968,349.820 343.398,350.943 342.967 C 351.304 342.828,351.600 342.285,351.600 341.761 C 351.600 341.236,351.960 340.582,352.400 340.307 C 352.840 340.032,353.200 339.596,353.200 339.337 C 353.200 339.078,353.425 338.776,353.700 338.665 C 353.999 338.544,353.918 338.450,353.500 338.432 C 353.115 338.414,352.800 338.578,352.800 338.797 M49.110 341.503 C 49.218 342.193,49.773 342.919,50.607 343.459 L 51.932 344.318 50.522 342.459 C 49.746 341.437,49.073 340.556,49.025 340.503 C 48.978 340.450,49.016 340.900,49.110 341.503 M52.400 345.122 C 52.400 345.359,52.580 345.664,52.800 345.800 C 53.020 345.936,53.200 346.397,53.200 346.824 C 53.200 347.256,53.473 347.600,53.817 347.600 C 54.156 347.600,54.820 347.960,55.292 348.400 C 55.764 348.840,56.325 349.200,56.538 349.200 C 56.750 349.200,56.401 348.751,55.762 348.203 C 55.123 347.655,54.105 346.641,53.500 345.949 C 52.895 345.257,52.400 344.885,52.400 345.122 M346.495 346.733 C 344.948 348.359,344.261 349.682,345.724 348.219 C 346.064 347.879,346.626 347.600,346.971 347.600 C 347.317 347.600,347.600 347.276,347.600 346.880 C 347.600 346.484,347.813 345.947,348.073 345.687 C 348.334 345.426,348.469 345.152,348.373 345.078 C 348.278 345.003,347.433 345.748,346.495 346.733 M58.000 351.153 C 58.000 351.348,58.492 351.601,59.092 351.716 C 60.114 351.911,60.135 351.888,59.416 351.362 C 58.537 350.719,58.000 350.640,58.000 351.153 M341.384 351.362 C 340.665 351.888,340.686 351.911,341.708 351.716 C 342.308 351.601,342.800 351.348,342.800 351.153 C 342.800 350.640,342.263 350.719,341.384 351.362 M61.200 353.600 C 61.200 353.820,61.470 354.000,61.800 354.000 C 62.130 354.000,62.400 353.820,62.400 353.600 C 62.400 353.380,62.130 353.200,61.800 353.200 C 61.470 353.200,61.200 353.380,61.200 353.600 M338.400 353.600 C 338.400 353.820,338.670 354.000,339.000 354.000 C 339.330 354.000,339.600 353.820,339.600 353.600 C 339.600 353.380,339.330 353.200,339.000 353.200 C 338.670 353.200,338.400 353.380,338.400 353.600 M63.076 354.253 C 63.191 354.554,63.521 354.800,63.809 354.800 C 64.098 354.800,64.424 355.025,64.535 355.300 C 64.673 355.641,64.746 355.609,64.765 355.200 C 64.781 354.870,64.360 354.399,63.830 354.153 C 63.051 353.792,62.906 353.812,63.076 354.253 M336.900 354.144 C 336.405 354.389,336.014 354.862,336.032 355.195 C 336.053 355.606,336.128 355.639,336.265 355.300 C 336.376 355.025,336.702 354.800,336.991 354.800 C 337.279 354.800,337.618 354.530,337.745 354.200 C 337.871 353.870,337.936 353.622,337.887 353.649 C 337.839 353.676,337.395 353.899,336.900 354.144 M65.439 355.538 C 65.300 355.761,65.382 356.065,65.620 356.212 C 66.235 356.593,66.632 356.072,66.118 355.558 C 65.831 355.271,65.607 355.264,65.439 355.538 M68.900 357.076 C 69.285 357.176,69.600 357.425,69.600 357.629 C 69.600 357.833,69.802 358.000,70.049 358.000 C 70.359 358.000,70.344 357.815,70.000 357.400 C 69.726 357.070,69.209 356.821,68.851 356.846 C 68.302 356.886,68.309 356.921,68.900 357.076 M330.800 357.400 C 330.456 357.815,330.441 358.000,330.751 358.000 C 330.998 358.000,331.200 357.833,331.200 357.629 C 331.200 357.425,331.515 357.176,331.900 357.076 C 332.491 356.921,332.498 356.886,331.949 356.846 C 331.591 356.821,331.074 357.070,330.800 357.400 M76.190 359.848 C 76.547 360.204,76.938 360.396,77.059 360.274 C 77.415 359.918,76.806 359.200,76.148 359.200 C 75.625 359.200,75.631 359.288,76.190 359.848 M323.784 359.627 C 323.328 360.364,323.932 360.525,324.610 359.848 C 325.169 359.288,325.175 359.200,324.652 359.200 C 324.319 359.200,323.929 359.392,323.784 359.627 M79.900 360.282 C 80.395 360.378,80.800 360.623,80.800 360.828 C 80.800 361.033,81.160 361.200,81.600 361.200 C 82.040 361.200,82.400 361.039,82.400 360.843 C 82.400 360.348,81.340 359.990,80.067 360.054 C 79.125 360.103,79.105 360.129,79.900 360.282 M318.900 360.265 C 318.116 360.581,318.315 361.200,319.200 361.200 C 319.640 361.200,320.000 361.033,320.000 360.828 C 320.000 360.623,320.405 360.378,320.900 360.282 C 321.579 360.152,321.505 360.103,320.600 360.086 C 319.940 360.073,319.175 360.154,318.900 360.265 " stroke="none" fill="#9caccc" fill-rule="evenodd"></path><path id="path3" d="M57.833 49.857 C 57.695 50.219,57.675 50.609,57.791 50.724 C 57.906 50.839,58.000 50.723,58.000 50.467 C 58.000 50.210,58.281 50.000,58.624 50.000 C 58.967 50.000,59.136 49.820,59.000 49.600 C 58.631 49.003,58.118 49.116,57.833 49.857 M47.504 61.788 C 47.401 62.331,47.448 62.694,47.610 62.594 C 48.040 62.328,48.380 60.800,48.009 60.800 C 47.835 60.800,47.608 61.245,47.504 61.788 M352.686 61.606 C 352.995 62.790,353.517 62.945,353.296 61.788 C 353.192 61.245,352.965 60.800,352.791 60.800 C 352.617 60.800,352.570 61.163,352.686 61.606 M220.984 75.627 C 220.528 76.364,221.132 76.525,221.810 75.848 C 222.369 75.288,222.375 75.200,221.852 75.200 C 221.519 75.200,221.129 75.392,220.984 75.627 M250.400 75.492 C 250.730 75.617,251.115 75.896,251.255 76.111 C 251.396 76.326,251.744 76.358,252.029 76.182 C 252.591 75.835,251.564 75.253,250.400 75.260 C 249.867 75.263,249.867 75.289,250.400 75.492 M260.700 76.282 C 261.195 76.378,261.600 76.623,261.600 76.828 C 261.600 77.033,261.870 77.200,262.200 77.200 C 262.530 77.200,262.800 77.041,262.800 76.847 C 262.800 76.459,261.348 75.983,260.400 76.060 C 260.070 76.087,260.205 76.187,260.700 76.282 M40.000 82.400 C 39.683 82.596,39.556 82.889,39.718 83.052 C 39.881 83.214,40.223 83.137,40.480 82.880 C 40.737 82.623,40.863 82.330,40.762 82.228 C 40.660 82.127,40.317 82.204,40.000 82.400 M360.006 82.471 C 360.017 83.367,360.663 84.146,360.976 83.640 C 361.127 83.394,360.970 82.912,360.626 82.568 C 360.157 82.100,360.002 82.076,360.006 82.471 M189.592 90.610 C 188.901 91.443,189.411 91.847,190.181 91.076 C 190.521 90.736,190.800 90.354,190.800 90.229 C 190.800 89.784,190.091 90.008,189.592 90.610 M247.100 116.699 C 250.455 116.766,255.945 116.766,259.300 116.699 C 262.655 116.632,259.910 116.578,253.200 116.578 C 246.490 116.578,243.745 116.632,247.100 116.699 M224.100 120.998 C 223.825 121.311,223.614 121.979,223.632 122.483 C 223.661 123.344,223.687 123.335,224.057 122.325 C 224.273 121.733,224.933 121.073,225.525 120.857 L 226.600 120.463 225.600 120.447 C 225.050 120.438,224.375 120.686,224.100 120.998 M174.643 121.833 C 174.267 122.811,174.349 122.908,175.000 122.257 C 175.680 121.577,175.767 121.200,175.243 121.200 C 175.046 121.200,174.776 121.485,174.643 121.833 M174.000 148.376 C 174.000 159.859,174.139 166.000,174.400 166.000 C 174.661 166.000,174.800 159.941,174.800 148.624 C 174.800 137.471,174.657 131.159,174.400 131.000 C 174.136 130.837,174.000 136.729,174.000 148.376 M263.419 166.900 C 263.574 167.306,263.499 167.600,263.243 167.600 C 262.999 167.600,262.800 167.780,262.800 168.000 C 262.800 168.635,263.600 168.464,263.866 167.773 C 263.998 167.428,263.892 166.933,263.629 166.673 C 263.261 166.308,263.213 166.360,263.419 166.900 M262.460 173.866 C 262.162 174.189,262.030 174.564,262.166 174.700 C 262.501 175.034,263.327 174.170,263.145 173.674 C 263.065 173.456,262.757 173.542,262.460 173.866 M261.660 180.266 C 261.362 180.589,261.230 180.964,261.366 181.100 C 261.701 181.434,262.527 180.570,262.345 180.074 C 262.265 179.856,261.957 179.942,261.660 180.266 M260.860 186.666 C 260.562 186.989,260.430 187.364,260.566 187.500 C 260.901 187.834,261.727 186.970,261.545 186.474 C 261.465 186.256,261.157 186.342,260.860 186.666 M260.060 193.066 C 259.762 193.389,259.630 193.764,259.766 193.900 C 260.101 194.234,260.927 193.370,260.745 192.874 C 260.665 192.656,260.357 192.742,260.060 193.066 M259.260 199.466 C 258.962 199.789,258.830 200.164,258.966 200.300 C 259.301 200.634,260.127 199.770,259.945 199.274 C 259.865 199.056,259.557 199.142,259.260 199.466 M258.500 205.823 C 257.911 206.463,257.862 206.800,258.357 206.800 C 258.698 206.800,259.337 205.596,259.109 205.383 C 259.049 205.327,258.775 205.525,258.500 205.823 M239.000 211.600 L 220.200 211.812 238.876 211.906 C 250.998 211.967,257.640 211.860,257.800 211.600 C 257.936 211.380,257.992 211.242,257.924 211.294 C 257.856 211.346,249.340 211.483,239.000 211.600 M144.900 211.900 C 150.125 211.963,158.675 211.963,163.900 211.900 C 169.125 211.836,164.850 211.785,154.400 211.785 C 143.950 211.785,139.675 211.836,144.900 211.900 M173.903 268.873 C 173.971 306.332,174.141 325.560,174.403 325.398 C 175.044 325.002,174.942 212.540,174.300 212.294 C 173.901 212.141,173.821 223.587,173.903 268.873 M39.600 317.924 C 39.600 318.139,39.885 318.424,40.233 318.557 C 40.623 318.707,40.806 318.618,40.708 318.325 C 40.509 317.727,39.600 317.398,39.600 317.924 M360.267 317.867 C 359.781 318.353,359.990 318.779,360.600 318.545 C 360.930 318.418,361.200 318.154,361.200 317.957 C 361.200 317.538,360.649 317.484,360.267 317.867 M57.600 350.157 C 57.600 350.459,57.960 350.801,58.400 350.916 C 58.840 351.031,59.200 351.092,59.200 351.051 C 59.200 351.011,58.840 350.670,58.400 350.293 C 57.787 349.768,57.600 349.737,57.600 350.157 M342.258 350.397 C 341.535 351.128,341.537 351.142,342.358 350.927 C 342.821 350.806,343.200 350.458,343.200 350.153 C 343.200 349.468,343.170 349.475,342.258 350.397 M60.800 352.791 C 60.800 352.965,61.245 353.192,61.788 353.296 C 62.331 353.399,62.694 353.352,62.594 353.190 C 62.328 352.760,60.800 352.420,60.800 352.791 M338.900 352.812 C 337.706 353.292,337.756 353.536,339.000 353.298 C 339.550 353.193,340.000 352.948,340.000 352.753 C 340.000 352.559,339.955 352.411,339.900 352.425 C 339.845 352.439,339.395 352.613,338.900 352.812 M82.190 360.648 C 82.547 361.004,82.959 361.174,83.107 361.026 C 83.256 360.878,83.112 360.589,82.788 360.384 C 81.843 359.787,81.487 359.944,82.190 360.648 M318.012 360.384 C 317.688 360.589,317.544 360.878,317.693 361.026 C 317.841 361.174,318.253 361.004,318.610 360.648 C 319.313 359.944,318.957 359.787,318.012 360.384 " stroke="none" fill="#7e90ba" fill-rule="evenodd"></path><path id="path4" d="M83.055 40.200 C 82.813 40.831,83.457 40.983,84.567 40.557 C 85.525 40.190,85.325 39.600,84.243 39.600 C 83.716 39.600,83.182 39.870,83.055 40.200 M315.600 39.957 C 315.600 40.354,316.564 40.800,317.420 40.800 C 317.749 40.800,317.881 40.556,317.745 40.200 C 317.501 39.564,315.600 39.349,315.600 39.957 M78.400 41.000 C 78.400 41.330,78.580 41.600,78.800 41.600 C 79.020 41.600,79.200 41.330,79.200 41.000 C 79.200 40.670,79.020 40.400,78.800 40.400 C 78.580 40.400,78.400 40.670,78.400 41.000 M321.600 41.000 C 321.600 41.330,321.780 41.600,322.000 41.600 C 322.220 41.600,322.400 41.330,322.400 41.000 C 322.400 40.670,322.220 40.400,322.000 40.400 C 321.780 40.400,321.600 40.670,321.600 41.000 M74.643 41.833 C 74.493 42.223,74.582 42.406,74.875 42.308 C 75.473 42.109,75.802 41.200,75.276 41.200 C 75.061 41.200,74.776 41.485,74.643 41.833 M325.292 41.675 C 325.379 41.936,325.664 42.221,325.925 42.308 C 326.218 42.406,326.307 42.223,326.157 41.833 C 325.878 41.106,325.052 40.955,325.292 41.675 M67.693 44.580 C 66.100 45.460,66.148 45.706,67.779 45.029 C 68.648 44.669,69.443 44.290,69.546 44.187 C 69.926 43.808,68.571 44.094,67.693 44.580 M331.254 44.187 C 331.567 44.500,334.400 45.623,334.400 45.435 C 334.400 45.191,331.969 44.000,331.472 44.000 C 331.249 44.000,331.151 44.084,331.254 44.187 M64.400 46.436 C 63.736 46.979,63.669 47.115,64.200 46.840 C 65.505 46.166,66.228 45.612,65.800 45.615 C 65.580 45.617,64.950 45.986,64.400 46.436 M335.411 46.139 C 337.319 47.441,338.400 48.078,338.400 47.899 C 338.400 47.645,335.304 45.600,334.920 45.600 C 334.756 45.600,334.977 45.842,335.411 46.139 M58.921 49.858 C 58.345 50.092,55.186 53.207,55.547 53.184 C 55.686 53.175,56.672 52.365,57.739 51.384 C 58.805 50.403,59.615 49.614,59.539 49.632 C 59.462 49.649,59.184 49.751,58.921 49.858 M342.400 50.252 C 342.400 50.464,343.165 51.349,344.100 52.219 L 345.800 53.800 344.200 52.006 C 343.320 51.020,342.555 50.135,342.500 50.039 C 342.445 49.944,342.400 50.040,342.400 50.252 M51.715 56.810 C 50.789 57.685,50.167 58.400,50.334 58.400 C 50.501 58.400,51.341 57.680,52.200 56.800 C 54.210 54.741,53.900 54.748,51.715 56.810 M348.686 56.803 C 349.614 57.770,350.435 58.480,350.512 58.380 C 350.588 58.281,349.829 57.490,348.825 56.622 L 347.000 55.044 348.686 56.803 M46.214 64.635 C 45.841 65.204,45.605 65.738,45.689 65.822 C 45.773 65.907,46.158 65.441,46.544 64.788 C 47.406 63.328,47.148 63.209,46.214 64.635 M353.960 64.200 C 354.634 65.505,355.188 66.228,355.185 65.800 C 355.183 65.580,354.814 64.950,354.364 64.400 C 353.821 63.736,353.685 63.669,353.960 64.200 M44.016 69.358 C 43.816 69.885,43.484 70.380,43.280 70.458 C 43.075 70.536,43.022 70.920,43.163 71.312 C 43.357 71.852,43.581 71.587,44.090 70.212 C 44.460 69.215,44.676 68.400,44.571 68.400 C 44.466 68.400,44.216 68.831,44.016 69.358 M356.704 70.196 C 357.218 71.582,357.443 71.852,357.638 71.312 C 357.788 70.895,357.667 70.467,357.347 70.280 C 357.046 70.104,356.800 69.710,356.800 69.404 C 356.800 69.098,356.626 68.740,356.413 68.608 C 356.201 68.477,356.332 69.192,356.704 70.196 M229.100 74.676 C 227.007 75.223,229.007 75.600,234.000 75.600 C 239.166 75.600,240.918 75.247,238.700 74.652 C 237.679 74.378,230.167 74.397,229.100 74.676 M41.465 75.967 C 41.806 77.393,41.879 77.407,42.073 76.085 C 42.184 75.328,42.066 74.933,41.730 74.933 C 41.383 74.933,41.298 75.265,41.465 75.967 M222.900 75.076 C 223.285 75.176,223.915 75.176,224.300 75.076 C 224.685 74.975,224.370 74.893,223.600 74.893 C 222.830 74.893,222.515 74.975,222.900 75.076 M244.700 75.093 C 245.635 75.177,247.165 75.177,248.100 75.093 C 249.035 75.009,248.270 74.940,246.400 74.940 C 244.530 74.940,243.765 75.009,244.700 75.093 M358.734 76.287 C 358.918 77.862,359.001 77.845,359.319 76.167 C 359.477 75.334,359.395 74.933,359.065 74.933 C 358.745 74.933,358.631 75.401,358.734 76.287 M218.600 75.600 C 217.515 75.794,217.322 75.907,218.000 75.949 C 218.550 75.983,219.380 76.113,219.845 76.238 C 220.400 76.387,220.773 76.248,220.932 75.832 C 221.192 75.155,221.125 75.148,218.600 75.600 M251.705 75.461 C 252.093 75.571,252.307 75.827,252.181 76.030 C 252.056 76.234,252.518 76.400,253.210 76.400 C 255.073 76.400,254.483 75.415,252.569 75.331 C 251.706 75.293,251.317 75.352,251.705 75.461 M258.100 75.876 C 258.485 75.976,259.115 75.976,259.500 75.876 C 259.885 75.775,259.570 75.693,258.800 75.693 C 258.030 75.693,257.715 75.775,258.100 75.876 M214.800 76.400 C 213.931 76.583,213.729 76.715,214.267 76.747 C 214.744 76.776,215.396 76.900,215.716 77.023 C 216.035 77.146,216.404 76.966,216.536 76.623 C 216.667 76.280,216.646 76.024,216.487 76.053 C 216.329 76.082,215.570 76.238,214.800 76.400 M262.100 76.258 C 262.485 76.368,262.800 76.625,262.800 76.829 C 262.800 77.033,263.085 77.200,263.433 77.200 C 264.574 77.200,263.769 76.202,262.569 76.128 C 261.926 76.089,261.715 76.147,262.100 76.258 M265.107 76.698 C 265.508 76.981,265.592 81.229,265.507 96.908 C 265.448 107.827,265.537 116.624,265.704 116.456 C 266.349 115.810,265.856 76.682,265.200 76.503 C 264.748 76.380,264.725 76.428,265.107 76.698 M211.600 77.166 L 210.600 77.452 211.680 77.667 C 212.380 77.806,212.833 77.691,212.967 77.341 C 213.193 76.752,213.091 76.739,211.600 77.166 M208.800 78.000 L 207.800 78.320 208.876 78.360 C 209.468 78.382,210.064 78.220,210.200 78.000 C 210.481 77.545,210.220 77.545,208.800 78.000 M40.702 79.767 C 40.981 81.954,41.089 81.978,41.258 79.891 C 41.349 78.765,41.237 78.133,40.947 78.133 C 40.650 78.133,40.566 78.695,40.702 79.767 M359.506 79.933 C 359.768 82.375,359.885 82.438,360.060 80.230 C 360.148 79.126,360.028 78.343,359.755 78.238 C 359.445 78.119,359.368 78.646,359.506 79.933 M40.100 83.096 C 39.502 83.300,39.420 86.000,40.013 86.000 C 40.572 86.000,40.887 85.074,40.730 83.897 C 40.654 83.332,40.391 82.997,40.100 83.096 M360.114 84.369 C 360.226 86.150,361.200 86.545,361.200 84.810 C 361.200 84.118,361.035 83.655,360.834 83.779 C 360.633 83.903,360.369 83.779,360.249 83.502 C 360.128 83.226,360.067 83.616,360.114 84.369 M189.581 89.907 C 187.584 92.007,187.394 92.400,188.376 92.400 C 188.925 92.400,189.200 92.141,189.200 91.623 C 189.200 91.195,189.527 90.610,189.926 90.323 C 190.510 89.903,191.433 88.379,191.087 88.407 C 191.039 88.411,190.361 89.086,189.581 89.907 M181.453 100.500 L 180.733 101.800 181.558 100.800 C 182.289 99.913,182.614 99.200,182.286 99.200 C 182.224 99.200,181.849 99.785,181.453 100.500 M179.311 104.900 C 178.711 105.676,178.353 106.877,178.805 106.597 C 179.022 106.463,179.200 106.102,179.200 105.796 C 179.200 105.490,179.515 105.056,179.900 104.832 C 180.285 104.608,180.397 104.419,180.149 104.412 C 179.901 104.405,179.524 104.625,179.311 104.900 M177.884 108.000 C 177.753 108.500,177.872 108.800,178.200 108.800 C 178.528 108.800,178.647 108.500,178.516 108.000 C 178.401 107.560,178.259 107.200,178.200 107.200 C 178.141 107.200,177.999 107.560,177.884 108.000 M177.102 110.200 C 176.983 110.826,177.094 111.200,177.400 111.200 C 177.706 111.200,177.817 110.826,177.698 110.200 C 177.593 109.650,177.459 109.200,177.400 109.200 C 177.341 109.200,177.207 109.650,177.102 110.200 M175.526 115.800 C 175.280 117.652,175.279 117.646,175.881 117.274 C 176.181 117.088,176.235 116.511,176.038 115.596 L 175.739 114.200 175.526 115.800 M233.855 117.000 C 233.715 117.365,233.855 117.600,234.213 117.600 C 234.536 117.600,234.800 117.330,234.800 117.000 C 234.800 116.670,234.639 116.400,234.443 116.400 C 234.246 116.400,233.982 116.670,233.855 117.000 M237.100 117.089 C 237.815 117.178,238.985 117.178,239.700 117.089 C 240.415 117.001,239.830 116.928,238.400 116.928 C 236.970 116.928,236.385 117.001,237.100 117.089 M174.841 119.000 C 174.812 119.660,174.669 120.650,174.522 121.200 C 174.281 122.104,174.315 122.141,174.878 121.579 C 175.350 121.107,175.427 120.578,175.196 119.379 C 174.924 117.967,174.887 117.927,174.841 119.000 M224.629 121.429 C 224.283 121.774,224.006 122.269,224.013 122.529 C 224.021 122.827,224.211 122.779,224.531 122.400 C 224.809 122.070,225.289 121.575,225.598 121.300 C 225.942 120.994,225.985 120.800,225.709 120.800 C 225.460 120.800,224.974 121.083,224.629 121.429 M174.093 124.400 C 174.093 125.170,174.175 125.485,174.276 125.100 C 174.376 124.715,174.376 124.085,174.276 123.700 C 174.175 123.315,174.093 123.630,174.093 124.400 M221.484 126.400 C 221.599 126.840,221.741 127.200,221.800 127.200 C 221.859 127.200,222.001 126.840,222.116 126.400 C 222.247 125.900,222.128 125.600,221.800 125.600 C 221.472 125.600,221.353 125.900,221.484 126.400 M173.843 127.433 C 173.709 127.781,173.600 136.599,173.600 147.029 L 173.600 165.992 154.500 166.102 L 135.400 166.212 154.600 166.206 L 173.800 166.200 173.904 148.479 C 173.972 136.918,174.146 130.843,174.404 131.003 C 174.647 131.153,174.800 130.389,174.800 129.024 C 174.800 126.878,174.346 126.123,173.843 127.433 M220.000 131.200 C 219.683 131.396,219.556 131.689,219.718 131.852 C 219.881 132.014,220.223 131.937,220.480 131.680 C 221.084 131.076,220.747 130.738,220.000 131.200 M220.193 150.000 L 220.200 166.200 241.800 166.205 L 263.400 166.211 241.904 166.102 L 220.409 165.993 220.298 149.897 L 220.187 133.800 220.193 150.000 M134.891 189.076 C 134.841 201.438,134.935 211.636,135.100 211.738 C 135.372 211.907,135.368 195.208,135.090 174.600 C 135.031 170.200,134.941 176.714,134.891 189.076 M263.300 168.288 C 262.699 168.503,262.626 169.600,263.213 169.600 C 263.625 169.600,264.231 168.479,263.949 168.238 C 263.867 168.167,263.575 168.190,263.300 168.288 M263.301 171.800 C 263.305 172.680,263.387 172.993,263.483 172.495 C 263.579 171.998,263.575 171.278,263.475 170.895 C 263.375 170.513,263.296 170.920,263.301 171.800 M262.500 174.688 C 261.899 174.903,261.826 176.000,262.413 176.000 C 262.825 176.000,263.431 174.879,263.149 174.638 C 263.067 174.567,262.775 174.590,262.500 174.688 M262.501 178.200 C 262.505 179.080,262.587 179.393,262.683 178.895 C 262.779 178.398,262.775 177.678,262.675 177.295 C 262.575 176.913,262.496 177.320,262.501 178.200 M261.700 181.088 C 261.099 181.303,261.026 182.400,261.613 182.400 C 262.025 182.400,262.631 181.279,262.349 181.038 C 262.267 180.967,261.975 180.990,261.700 181.088 M261.701 184.600 C 261.705 185.480,261.787 185.793,261.883 185.295 C 261.979 184.798,261.975 184.078,261.875 183.695 C 261.775 183.313,261.696 183.720,261.701 184.600 M260.900 187.488 C 260.299 187.703,260.226 188.800,260.813 188.800 C 261.225 188.800,261.831 187.679,261.549 187.438 C 261.467 187.367,261.175 187.390,260.900 187.488 M260.901 191.000 C 260.905 191.880,260.987 192.193,261.083 191.695 C 261.179 191.198,261.175 190.478,261.075 190.095 C 260.975 189.713,260.896 190.120,260.901 191.000 M260.100 193.865 C 259.404 194.146,259.473 194.800,260.200 194.800 C 260.530 194.800,260.800 194.530,260.800 194.200 C 260.800 193.870,260.755 193.614,260.700 193.632 C 260.645 193.649,260.375 193.754,260.100 193.865 M260.101 197.400 C 260.105 198.280,260.187 198.593,260.283 198.095 C 260.379 197.598,260.375 196.878,260.275 196.495 C 260.175 196.113,260.096 196.520,260.101 197.400 M259.300 200.265 C 258.604 200.546,258.673 201.200,259.400 201.200 C 259.730 201.200,260.000 200.930,260.000 200.600 C 260.000 200.270,259.955 200.014,259.900 200.032 C 259.845 200.049,259.575 200.154,259.300 200.265 M259.301 203.800 C 259.305 204.680,259.387 204.993,259.483 204.495 C 259.579 203.998,259.575 203.278,259.475 202.895 C 259.375 202.513,259.296 202.920,259.301 203.800 M258.500 206.598 C 257.843 207.344,257.869 207.600,258.600 207.600 C 258.933 207.600,259.200 207.244,259.200 206.800 C 259.200 205.862,259.159 205.850,258.500 206.598 M258.446 209.820 C 258.421 210.491,258.184 211.256,257.920 211.520 C 257.555 211.885,257.553 212.000,257.912 212.000 C 258.476 212.000,258.948 210.362,258.682 209.332 C 258.568 208.890,258.474 209.083,258.446 209.820 M173.503 268.700 C 173.577 309.636,173.729 325.474,174.052 325.862 C 174.670 326.608,219.176 326.664,219.920 325.920 C 220.290 325.550,220.377 312.390,220.301 268.620 L 220.203 211.800 220.103 268.400 C 220.001 326.175,219.996 326.427,219.046 325.638 C 218.653 325.312,212.337 325.216,196.251 325.293 L 174.000 325.400 174.000 268.924 C 174.000 237.862,173.865 212.364,173.700 212.262 C 173.535 212.160,173.446 237.557,173.503 268.700 M360.243 315.433 C 359.763 316.684,359.964 317.989,360.600 317.745 C 360.970 317.603,361.200 316.995,361.200 316.157 C 361.200 314.744,360.663 314.338,360.243 315.433 M39.600 316.524 C 39.600 317.069,39.882 317.623,40.226 317.755 C 40.714 317.942,40.825 317.759,40.726 316.928 C 40.561 315.536,39.600 315.191,39.600 316.524 M40.734 320.769 C 40.640 321.763,40.760 322.453,41.048 322.563 C 41.379 322.690,41.454 322.253,41.303 321.071 C 41.023 318.879,40.920 318.824,40.734 320.769 M41.520 324.366 C 41.409 325.118,41.536 325.643,41.858 325.767 C 42.240 325.914,42.310 325.635,42.129 324.682 C 41.806 322.982,41.729 322.942,41.520 324.366 M358.725 324.400 C 358.462 325.999,358.476 326.058,359.028 325.678 C 359.251 325.525,359.326 324.860,359.195 324.200 L 358.956 323.000 358.725 324.400 M43.084 329.600 C 42.953 330.100,43.072 330.400,43.400 330.400 C 43.728 330.400,43.847 330.100,43.716 329.600 C 43.601 329.160,43.459 328.800,43.400 328.800 C 43.341 328.800,43.199 329.160,43.084 329.600 M357.084 329.600 C 356.953 330.100,357.072 330.400,357.400 330.400 C 357.728 330.400,357.847 330.100,357.716 329.600 C 357.601 329.160,357.459 328.800,357.400 328.800 C 357.341 328.800,357.199 329.160,357.084 329.600 M352.079 339.334 C 351.108 340.856,351.029 341.084,351.779 340.200 C 352.338 339.540,352.797 338.878,352.798 338.729 C 352.799 338.580,353.065 338.400,353.389 338.329 C 353.726 338.255,353.854 338.000,353.687 337.734 C 353.503 337.441,352.908 338.034,352.079 339.334 M48.277 339.231 C 48.675 339.908,49.256 340.673,49.568 340.931 C 49.880 341.189,49.632 340.635,49.015 339.700 C 47.720 337.737,47.209 337.412,48.277 339.231 M52.629 344.838 C 53.273 345.629,53.881 346.208,53.979 346.125 C 54.078 346.042,53.551 345.395,52.809 344.687 L 51.458 343.400 52.629 344.838 M347.601 344.998 C 347.086 345.548,346.739 346.064,346.832 346.146 C 346.924 346.228,347.419 345.778,347.930 345.147 C 349.076 343.735,348.874 343.644,347.601 344.998 M55.200 347.325 C 55.200 347.394,55.785 347.979,56.500 348.625 L 57.800 349.800 56.625 348.500 C 55.530 347.288,55.200 347.016,55.200 347.325 M344.175 348.500 L 343.000 349.800 344.300 348.625 C 345.015 347.979,345.600 347.394,345.600 347.325 C 345.600 347.016,345.270 347.288,344.175 348.500 M63.603 353.877 C 63.606 354.206,65.645 355.288,65.859 355.075 C 65.923 355.011,65.441 354.642,64.788 354.256 C 64.134 353.870,63.601 353.700,63.603 353.877 M335.800 354.400 C 335.140 354.837,334.780 355.192,335.000 355.188 C 335.401 355.182,337.576 353.623,337.200 353.612 C 337.090 353.608,336.460 353.963,335.800 354.400 M66.400 355.757 C 66.400 356.117,66.677 356.253,67.155 356.128 C 67.570 356.019,68.031 356.126,68.178 356.365 C 68.326 356.604,68.737 356.800,69.090 356.800 C 69.956 356.800,69.645 356.545,67.879 355.807 C 66.625 355.283,66.400 355.276,66.400 355.757 M332.600 355.978 C 331.720 356.395,331.197 356.750,331.439 356.768 C 331.928 356.804,334.400 355.638,334.400 355.371 C 334.400 355.130,334.376 355.138,332.600 355.978 M72.200 358.000 C 72.336 358.220,72.842 358.387,73.324 358.372 C 74.169 358.345,74.171 358.331,73.400 358.000 C 72.299 357.527,71.908 357.527,72.200 358.000 M327.400 358.000 C 326.629 358.331,326.631 358.345,327.476 358.372 C 327.958 358.387,328.464 358.220,328.600 358.000 C 328.892 357.527,328.501 357.527,327.400 358.000 M74.741 358.901 C 74.943 359.103,75.533 359.201,76.054 359.119 C 76.855 358.993,76.798 358.937,75.687 358.752 C 74.893 358.621,74.519 358.679,74.741 358.901 M325.000 358.800 L 323.800 359.105 324.876 359.153 C 325.468 359.179,326.064 359.020,326.200 358.800 C 326.336 358.580,326.392 358.421,326.324 358.447 C 326.256 358.473,325.660 358.632,325.000 358.800 M77.443 359.767 C 77.576 360.115,77.861 360.400,78.076 360.400 C 78.602 360.400,78.273 359.491,77.675 359.292 C 77.382 359.194,77.293 359.377,77.443 359.767 M322.667 359.467 C 322.284 359.849,322.338 360.400,322.757 360.400 C 322.954 360.400,323.218 360.130,323.345 359.800 C 323.579 359.190,323.153 358.981,322.667 359.467 M82.943 360.600 C 83.593 361.250,85.200 361.423,85.200 360.843 C 85.200 360.405,84.209 360.000,83.139 360.000 C 82.431 360.000,82.410 360.067,82.943 360.600 M316.100 360.265 C 315.825 360.376,315.600 360.632,315.600 360.833 C 315.600 361.421,317.201 361.256,317.857 360.600 C 318.484 359.973,317.356 359.758,316.100 360.265 " stroke="none" fill="#6c84b4" fill-rule="evenodd"></path></g></svg>