<?xml version="1.0" standalone="yes"?>
<svg xmlns="http://www.w3.org/2000/svg" width="512" height="512">
<path style="fill:#010101; stroke:none;" d="M0 0L0 109L1 109C1.17701 44.8525 56.9247 1.00665 118 1L82 0L0 0z"/>
<path style="fill:#f65752; stroke:none;" d="M67 183C67.6458 167.958 69.8601 152.298 74.6674 138C77.7473 128.84 81.683 119.97 87.2052 112C124.904 57.5933 200.284 67 258 67L314 67C301.866 61.9086 281.173 72.2223 270.424 64.3966C254.635 52.9007 241.615 31.8091 228.87 17C224.35 11.7486 218.297 1.28873 210.999 0.148132C194.816 -2.38123 176.393 0 160 0C111.553 0 61.7342 -0.270752 27.0509 39C14.5797 53.1207 6.70833 70.5309 3.2608 89C2.30668 94.1114 0.0144684 101.969 1.75309 107C4.8521 115.967 15.8174 124.979 22.0502 132C36.5894 148.379 49.9692 169.266 67 183z"/>
<path style="fill:#d53e93; stroke:none;" d="M214 0C225.357 17.1686 241.245 32.545 254.845 48C259.409 53.1873 264.755 62.6655 271.285 65.3966C281.652 69.732 298.789 65.3217 310 66.0895C351.639 68.941 390.546 71.9377 419.7 106C448.229 139.332 445 187.065 445 228C445 239.723 442.519 254.621 445.317 266C447.293 274.036 457.314 281.876 462.576 288C477.874 305.808 492.736 328.274 511 343C513.409 332.883 512 321.363 512 311L512 253L512 159C512 112.912 513.765 64.444 476.999 30.0895C469.932 23.486 461.556 17.82 453 13.3202C423.995 -1.9342 390.68 0 359 0L214 0z"/>
<path style="fill:#010101; stroke:none;" d="M404 0L404 1C459.242 1.45724 510.536 49.9156 511 106L512 106L512 0L404 0z"/>
<path style="fill:#ffa54c; stroke:none;" d="M66 10L67 11L66 10z"/>
<path style="fill:#d53e93; stroke:none;" d="M30 35L31 36L30 35M18 50L19 51L18 50z"/>
<path style="fill:#ffa54c; stroke:none;" d="M184 67L184 68L192 68L184 67z"/>
<path style="fill:#fffdfd; stroke:none;" d="M192 67.4244C158.234 71.8579 122.562 72.0739 97.1705 99.0394C58.1959 140.431 67 206.874 67 259C67 286.18 65.4009 314.013 68.7153 341C71.8566 366.578 77.3404 391.219 95.1705 411C112.935 430.708 138.539 438.734 164 442.421C193.957 446.758 224.782 445 255 445C287.308 445 319.993 446.667 352 441.725C363.842 439.897 376.171 436.967 387 431.742C460.487 396.279 445 297.452 445 230C445 189.804 447.387 144.393 422.961 110C386.195 58.2318 313.529 67 258 67C236.464 67 213.348 64.6214 192 67.4244z"/>
<path style="fill:#ffa54c; stroke:none;" d="M324 67L324 68L331 68L324 67z"/>
<path style="fill:#f65752; stroke:none;" d="M331 67L331 68L335 68L331 67z"/>
<path style="fill:#ffa54c; stroke:none;" d="M171 68L171 69L176 69L171 68M340 68L340 69L343 69L340 68z"/>
<path style="fill:#f65752; stroke:none;" d="M343.667 68.3333L344.333 68.6667L343.667 68.3333z"/>
<path style="fill:#ffa54c; stroke:none;" d="M163 69L163 70L166 70L163 69M348 69L348 70L351 70L348 69z"/>
<path style="fill:#f65752; stroke:none;" d="M351 69L352 70L351 69z"/>
<path style="fill:#ffa54c; stroke:none;" d="M8 70L9 71L8 70M157.667 70.3333L158.333 70.6667L157.667 70.3333M355.667 70.3333L356.333 70.6667L355.667 70.3333z"/>
<path style="fill:#f65752; stroke:none;" d="M357 70L358 71L357 70z"/>
<path style="fill:#ffa54c; stroke:none;" d="M152.667 71.3333L153.333 71.6667L152.667 71.3333M360.667 71.3333L361.333 71.6667L360.667 71.3333z"/>
<path style="fill:#f65752; stroke:none;" d="M362 71L363 72L362 71z"/>
<path style="fill:#ffa54c; stroke:none;" d="M147.667 72.3333L148.333 72.6667L147.667 72.3333M365 72L366 73L365 72z"/>
<path style="fill:#f65752; stroke:none;" d="M366 72L367 73L366 72z"/>
<path style="fill:#ffa54c; stroke:none;" d="M7 73L8 74L7 73M143.667 73.3333L144.333 73.6667L143.667 73.3333M369 73L370 74L369 73z"/>
<path style="fill:#f65752; stroke:none;" d="M370 73L371 74L370 73z"/>
<path style="fill:#ffa54c; stroke:none;" d="M140 74L141 75L140 74M372 74L373 75L372 74z"/>
<path style="fill:#f65752; stroke:none;" d="M373 74L374 75L373 74z"/>
<path style="fill:#ffa54c; stroke:none;" d="M136.667 75.3333L137.333 75.6667L136.667 75.3333M375 75L376 76L375 75z"/>
<path style="fill:#f65752; stroke:none;" d="M376 75L377 76L376 75z"/>
<path style="fill:#ffa54c; stroke:none;" d="M133.667 76.3333L134.333 76.6667L133.667 76.3333M378 76L379 77L378 76z"/>
<path style="fill:#f65752; stroke:none;" d="M379 76L380 77L379 76z"/>
<path style="fill:#ffa54c; stroke:none;" d="M131 77L132 78L131 77M381 77L382 78L381 77M128 78L129 79L128 78M383 78L384 79L383 78M126 79L127 80L126 79M385 79L386 80L385 79z"/>
<path style="fill:#f65752; stroke:none;" d="M386 79L387 80L386 79M388 80L389 81L388 80M390 81L391 82L390 81z"/>
<path style="fill:#ffa54c; stroke:none;" d="M119 82L120 83L119 82M391 82L392 83L391 82M118 83L119 84L118 83M393 83L394 84L393 83M116 84L117 85L116 84z"/>
<path style="fill:#f65752; stroke:none;" d="M395 84L396 85L395 84z"/>
<path style="fill:#ffa54c; stroke:none;" d="M114 85L115 86L114 85M396 85L397 86L396 85M398 86L399 87L398 86M111 87L112 88L111 87z"/>
<path style="fill:#f65752; stroke:none;" d="M401 88L402 89L401 88z"/>
<path style="fill:#ffa54c; stroke:none;" d="M108 89L109 90L108 89M402 89L403 90L402 89M107 90L108 91L107 90z"/>
<path style="fill:#f65752; stroke:none;" d="M405 91L406 92L405 91z"/>
<path style="fill:#ffa54c; stroke:none;" d="M104 92L105 93L104 92M406 92L407 93L406 92M103 93L104 94L103 93M407 93L408 94L407 93M102 94L103 95L102 94M408 94L409 95L408 94M1.33333 100.667L1.66667 101.333L1.33333 100.667M288 100L288 101L305 101L288 100M190 101L190 102L205 102L190 101z"/>
<path style="fill:#f65752; stroke:none;" d="M168 301L169 301C159.142 272.04 153.843 245.185 167.309 216C194.818 156.382 274.057 140.435 322 185.09C371.104 230.825 359.199 317.32 296 344.572C272.762 354.592 246.977 356.036 223 347.655C214.523 344.692 207.296 339.14 199 336C211.688 354.083 228.34 370.212 242.729 387C248.669 393.93 255.758 405.831 264.001 409.972C274.672 415.334 297.078 411.005 309 411C335.617 410.99 368.468 408.987 388.961 389.826C416.268 364.294 408.806 319.342 411.09 286C412.265 268.836 414.874 248.028 411.772 231C410.709 225.168 404.829 220.258 401.05 216C391.345 205.067 379.912 184.629 366.996 177.777C362.441 175.361 356.167 178.628 351 176.895C333.919 171.165 331.628 155.069 339 141C328.386 138.469 317.275 119.091 310.155 111C307.071 107.495 303.873 101.977 298.91 101.148C286.317 99.0451 271.777 101 259 101C231.27 101 203.612 100.887 176 102.911C158.049 104.227 137.591 107 124.04 120.093C107.714 135.868 106.238 160.898 103.715 182C102.331 193.567 98.5181 212.895 102.742 224C105.931 232.382 115.795 240.236 121.579 247C136.945 264.967 153.705 282.17 168 301z"/>
<path style="fill:#d53e93; stroke:none;" d="M302 101C307.262 112.35 319.27 122.509 327.424 132C329.538 134.46 333.443 140.787 337.09 140.793C340.402 140.799 343.349 136.609 346 135.005C352.846 130.864 361.241 131.434 368 135.363C384.757 145.105 382.382 167.501 366 176L411 229C415.075 219.289 410.819 202.404 410.09 192C408.255 165.831 404.347 133.749 382 116.529C360.787 100.184 327.392 101 302 101z"/>
<path style="fill:#f65752; stroke:none;" d="M319 101L319 102L326 102L319 101z"/>
<path style="fill:#ffa54c; stroke:none;" d="M326 101L326 102L331 102L326 101M94 102L95 103L94 102M175 102L175 103L180 103L175 102z"/>
<path style="fill:#f65752; stroke:none;" d="M336 102L336 103L339 103L336 102z"/>
<path style="fill:#ffa54c; stroke:none;" d="M339 102L339 103L342 103L339 102M93 103L94 104L93 103M165 103L165 104L169 104L165 103z"/>
<path style="fill:#f65752; stroke:none;" d="M345.667 103.333L346.333 103.667L345.667 103.333z"/>
<path style="fill:#ffa54c; stroke:none;" d="M347.667 103.333L348.333 103.667L347.667 103.333M417 103L418 104L417 103M92 104L93 105L92 104M159 104L159 105L162 105L159 104z"/>
<path style="fill:#f65752; stroke:none;" d="M351.667 104.333L352.333 104.667L351.667 104.333z"/>
<path style="fill:#ffa54c; stroke:none;" d="M353 104L354 105L353 104M418 104L419 105L418 104M154.667 105.333L155.333 105.667L154.667 105.333z"/>
<path style="fill:#f65752; stroke:none;" d="M356 105L357 106L356 105z"/>
<path style="fill:#ffa54c; stroke:none;" d="M357 105L358 106L357 105M419 105L420 106L419 105M150 106L151 107L150 106z"/>
<path style="fill:#f65752; stroke:none;" d="M360 106L361 107L360 106z"/>
<path style="fill:#ffa54c; stroke:none;" d="M361 106L362 107L361 106z"/>
<path style="fill:#f65752; stroke:none;" d="M420 106L421 107L420 106z"/>
<path style="fill:#ffa54c; stroke:none;" d="M1 107C-1.26145 117.927 0 129.883 0 141L0 201L0 333C0 359.141 -2.05882 386.156 2.24691 412C7.64539 444.403 21.0395 475.966 50 493.934C77.0799 510.736 106.617 509.009 137 511.09C207.732 515.933 280.057 512 351 512L295 446L314 446L314 445C270.835 445 227.028 447.039 184 444.09C154.86 442.092 124.61 437.022 102 416.826C75.4143 393.08 70.2091 359.567 67.9105 326C64.524 276.548 68 226.478 68 177L67 177L67 183L1 107M90 107L91 108L90 107M146.667 107.333L147.333 107.667L146.667 107.333z"/>
<path style="fill:#f65752; stroke:none;" d="M363 107L364 108L363 107z"/>
<path style="fill:#ffa54c; stroke:none;" d="M364 107L365 108L364 107M89 108L90 109L89 108M143 108L144 109L143 108z"/>
<path style="fill:#f65752; stroke:none;" d="M366 108L367 109L366 108z"/>
<path style="fill:#ffa54c; stroke:none;" d="M367 108L368 109L367 108M140.667 109.333L141.333 109.667L140.667 109.333z"/>
<path style="fill:#f65752; stroke:none;" d="M369 109L370 110L369 109z"/>
<path style="fill:#ffa54c; stroke:none;" d="M422 109L423 110L422 109z"/>
<path style="fill:#f65752; stroke:none;" d="M0 110L1 111L0 110z"/>
<path style="fill:#ffa54c; stroke:none;" d="M138 110L139 111L138 110z"/>
<path style="fill:#f65752; stroke:none;" d="M371 110L372 111L371 110z"/>
<path style="fill:#ffa54c; stroke:none;" d="M372 110L373 111L372 110z"/>
<path style="fill:#f65752; stroke:none;" d="M423 110L424 111L423 110z"/>
<path style="fill:#ffa54c; stroke:none;" d="M87 111L88 112L87 111M136 111L137 112L136 111z"/>
<path style="fill:#f65752; stroke:none;" d="M373 111L374 112L373 111z"/>
<path style="fill:#ffa54c; stroke:none;" d="M374 111L375 112L374 111M86 112L87 113L86 112M134 112L135 113L134 112z"/>
<path style="fill:#f65752; stroke:none;" d="M375 112L376 113L375 112z"/>
<path style="fill:#ffa54c; stroke:none;" d="M424 112L425 113L424 112M132 113L133 114L132 113M377 113L378 114L377 113M425 113L426 114L425 113M85 114L86 115L85 114M131 114L132 115L131 114M379 114L380 115L379 114M129 115L130 116L129 115z"/>
<path style="fill:#f65752; stroke:none;" d="M380 115L381 116L380 115z"/>
<path style="fill:#ffa54c; stroke:none;" d="M426 115L427 116L426 115M84 116L85 117L84 116M128 116L129 117L128 116z"/>
<path style="fill:#f65752; stroke:none;" d="M427 116L428 117L427 116z"/>
<path style="fill:#ffa54c; stroke:none;" d="M83 117L84 118L83 117M383 117L384 118L383 117M384 118L385 119L384 118M428 118L429 119L428 118M82 119L83 120L82 119z"/>
<path style="fill:#f65752; stroke:none;" d="M385 119L386 120L385 119z"/>
<path style="fill:#ffa54c; stroke:none;" d="M123 120L124 121L123 120z"/>
<path style="fill:#f65752; stroke:none;" d="M386 120L387 121L386 120z"/>
<path style="fill:#ffa54c; stroke:none;" d="M429 120L430 121L429 120M81 121L82 122L81 121M122 121L123 122L122 121z"/>
<path style="fill:#f65752; stroke:none;" d="M387 121L388 122L387 121M388 122L389 123L388 122z"/>
<path style="fill:#ffa54c; stroke:none;" d="M430 122L431 123L430 122M80 123L81 124L80 123M389 123L390 124L389 123z"/>
<path style="fill:#f65752; stroke:none;" d="M431 123L432 124L431 123z"/>
<path style="fill:#ffa54c; stroke:none;" d="M390 124L391 125L390 124M431 124L432 125L431 124M79 125L80 126L79 125M119 125L120 126L119 125M391 125L392 126L391 125M118 126L119 127L118 126M432 126L433 127L432 126M78.3333 127.667L78.6667 128.333L78.3333 127.667z"/>
<path style="fill:#f65752; stroke:none;" d="M392 127L393 128L392 127z"/>
<path style="fill:#ffa54c; stroke:none;" d="M117 128L118 129L117 128M393 128L394 129L393 128M433 128L434 129L433 128M116 129L117 130L116 129M77 130L78 131L77 130z"/>
<path style="fill:#f65752; stroke:none;" d="M394 130L395 131L394 130M434 130L435 131L434 130z"/>
<path style="fill:#ffa54c; stroke:none;" d="M115 131L116 132L115 131M395 131L396 132L395 131M76.3333 132.667L76.6667 133.333L76.3333 132.667z"/>
<path style="fill:#f65752; stroke:none;" d="M352 132L353 133L352 132z"/>
<path style="fill:#ffa54c; stroke:none;" d="M353 132L353 133L360 133L353 132z"/>
<path style="fill:#f65752; stroke:none;" d="M360.667 132.333L361.333 132.667L360.667 132.333z"/>
<path style="fill:#ffa54c; stroke:none;" d="M114 133L115 134L114 133z"/>
<path style="fill:#f65752; stroke:none;" d="M348 133L349 134L348 133z"/>
<path style="fill:#ffa54c; stroke:none;" d="M349.667 133.333L350.333 133.667L349.667 133.333z"/>
<path style="fill:#fffdfd; stroke:none;" d="M351 133.529C322.515 140.114 334.737 183.998 363 176.649C390.888 169.397 379.095 127.035 351 133.529z"/>
<path style="fill:#ffa54c; stroke:none;" d="M363 133L364 134L363 133z"/>
<path style="fill:#f65752; stroke:none;" d="M364 133L365 134L364 133z"/>
<path style="fill:#ffa54c; stroke:none;" d="M396 133L397 134L396 133M435 133L436 134L435 133z"/>
<path style="fill:#f65752; stroke:none;" d="M346 134L347 135L346 134z"/>
<path style="fill:#ffa54c; stroke:none;" d="M347 134L348 135L347 134M366 134L367 135L366 134M75 135L76 136L75 135M113 135L114 136L113 135z"/>
<path style="fill:#f65752; stroke:none;" d="M344 135L345 136L344 135z"/>
<path style="fill:#ffa54c; stroke:none;" d="M345 135L346 136L345 135M368 135L369 136L368 135z"/>
<path style="fill:#f65752; stroke:none;" d="M397 135L398 136L397 135M436 135L437 136L436 135M343 136L344 137L343 136M370 136L371 137L370 136z"/>
<path style="fill:#ffa54c; stroke:none;" d="M436 136L437 137L436 136M112 137L113 138L112 137M342 137L343 138L342 137z"/>
<path style="fill:#f65752; stroke:none;" d="M371 137L372 138L371 137M398 137L399 138L398 137z"/>
<path style="fill:#ffa54c; stroke:none;" d="M74 138L75 139L74 138M341 138L342 139L341 138M372 138L373 139L372 138z"/>
<path style="fill:#f65752; stroke:none;" d="M437 138L438 139L437 138z"/>
<path style="fill:#ffa54c; stroke:none;" d="M111.333 139.667L111.667 140.333L111.333 139.667M340 139L341 140L340 139z"/>
<path style="fill:#f65752; stroke:none;" d="M373 139L374 140L373 139z"/>
<path style="fill:#ffa54c; stroke:none;" d="M399 139L400 140L399 139M437 139L438 140L437 139M339 140L340 141L339 140z"/>
<path style="fill:#f65752; stroke:none;" d="M374 140L375 141L374 140z"/>
<path style="fill:#ffa54c; stroke:none;" d="M73.3333 141.667L73.6667 142.333L73.3333 141.667z"/>
<path style="fill:#f65752; stroke:none;" d="M375 141L376 142L375 141z"/>
<path style="fill:#ffa54c; stroke:none;" d="M400 141L401 142L400 141M110.333 142.667L110.667 143.333L110.333 142.667z"/>
<path style="fill:#f65752; stroke:none;" d="M400 142L401 143L400 142z"/>
<path style="fill:#ffa54c; stroke:none;" d="M438.333 142.667L438.667 143.333L438.333 142.667M337 143L338 144L337 143M376 143L377 144L376 143M72 144L72 147L73 147L72 144M401 144L402 145L401 144M109.333 145.667L109.667 146.333L109.333 145.667M336 145L337 146L336 145M377 145L378 146L377 145z"/>
<path style="fill:#f65752; stroke:none;" d="M439 145L440 146L439 145z"/>
<path style="fill:#ffa54c; stroke:none;" d="M402 146L403 147L402 146M439.333 146.667L439.667 147.333L439.333 146.667M335 147L336 148L335 147z"/>
<path style="fill:#f65752; stroke:none;" d="M378 147L379 148L378 147M402 147L403 148L402 147z"/>
<path style="fill:#ffa54c; stroke:none;" d="M378 148L379 149L378 148M71.3333 149.667L71.6667 150.333L71.3333 149.667M108.333 149.667L108.667 150.333L108.333 149.667M403.333 149.667L403.667 150.333L403.333 149.667M334 150L334 153L335 153L334 150z"/>
<path style="fill:#f65752; stroke:none;" d="M379.333 150.667L379.667 151.333L379.333 150.667M440 150L441 151L440 150z"/>
<path style="fill:#ffa54c; stroke:none;" d="M440 151L441 152L440 151M107 152L107 155L108 155L107 152M379 152L379 158L380 158L379 152M70 153L70 156L71 156L70 153M404 153L405 154L404 153z"/>
<path style="fill:#f65752; stroke:none;" d="M404 154L405 155L404 154M441 155L442 156L441 155z"/>
<path style="fill:#ffa54c; stroke:none;" d="M405.333 156.667L405.667 157.333L405.333 156.667M441.333 156.667L441.667 157.333L441.333 156.667M106 157L106 160L107 160L106 157M334 157L334 160L335 160L334 157z"/>
<path style="fill:#f65752; stroke:none;" d="M379.333 158.667L379.667 159.333L379.333 158.667M405 158L406 159L405 158z"/>
<path style="fill:#ffa54c; stroke:none;" d="M69 159L69 163L70 163L69 159M244 159L244 160L247 160L244 159z"/>
<path style="fill:#fffdfd; stroke:none;" d="M247 159.425C206.454 164.944 172.125 191.268 161.895 232C146.318 294.02 198.131 360.592 264 352.715C302.752 348.08 337.063 323.426 348.562 285C367.402 222.041 315.636 150.082 247 159.425z"/>
<path style="fill:#ffa54c; stroke:none;" d="M264 159L264 160L268 160L264 159M237 160L237 161L240 161L237 160M272 160L272 161L275 161L272 160M233.667 161.333L234.333 161.667L233.667 161.333M277.667 161.333L278.333 161.667L277.667 161.333M378 161L379 162L378 161M406.333 161.667L406.667 162.333L406.333 161.667z"/>
<path style="fill:#f65752; stroke:none;" d="M442 161L443 162L442 161z"/>
<path style="fill:#ffa54c; stroke:none;" d="M229.667 162.333L230.333 162.667L229.667 162.333M281.667 162.333L282.333 162.667L281.667 162.333M335 162L336 163L335 162z"/>
<path style="fill:#f65752; stroke:none;" d="M378 162L379 163L378 162z"/>
<path style="fill:#ffa54c; stroke:none;" d="M442 162L442 165L443 165L442 162M105 163L105 166L106 166L105 163M226 163L227 164L226 163M285 163L286 164L285 163z"/>
<path style="fill:#f65752; stroke:none;" d="M406 163L407 164L406 163z"/>
<path style="fill:#ffa54c; stroke:none;" d="M223 164L224 165L223 164M288 164L289 165L288 164M377 164L378 165L377 164M220 165L221 166L220 165M291 165L292 166L291 165z"/>
<path style="fill:#f65752; stroke:none;" d="M377 165L378 166L377 165z"/>
<path style="fill:#ffa54c; stroke:none;" d="M218 166L219 167L218 166M293 166L294 167L293 166M376 166L377 167L376 166M407.333 166.667L407.667 167.333L407.333 166.667M68 167L68 172L69 172L68 167M216 167L217 168L216 167M295 167L296 168L295 167M213 168L214 169L213 168M338 168L339 169L338 168z"/>
<path style="fill:#f65752; stroke:none;" d="M375 168L376 169L375 168M407 168L408 169L407 168z"/>
<path style="fill:#ffa54c; stroke:none;" d="M104 169L104 174L105 174L104 169M211 169L212 170L211 169M339 169L340 170L339 169M374 169L375 170L374 169z"/>
<path style="fill:#f65752; stroke:none;" d="M443.333 169.667L443.667 170.333L443.333 169.667z"/>
<path style="fill:#ffa54c; stroke:none;" d="M373 170L374 171L373 170M208 171L209 172L208 171M303 171L304 172L303 171M372 171L373 172L372 171M443 171L443 175L444 175L443 171M206 172L207 173L206 172M305 172L306 173L305 172M342 172L343 173L342 172M371 172L372 173L371 172M408.333 172.667L408.667 173.333L408.333 172.667M204 173L205 174L204 173M343 173L344 174L343 173z"/>
<path style="fill:#f65752; stroke:none;" d="M370 173L371 174L370 173z"/>
<path style="fill:#ffa54c; stroke:none;" d="M203 174L204 175L203 174M308 174L309 175L308 174M345 174L346 175L345 174M368 174L369 175L368 174z"/>
<path style="fill:#f65752; stroke:none;" d="M369 174L370 175L369 174M408.333 174.667L408.667 175.333L408.333 174.667z"/>
<path style="fill:#ffa54c; stroke:none;" d="M201 175L202 176L201 175M310 175L311 176L310 175M366 175L367 176L366 175z"/>
<path style="fill:#f65752; stroke:none;" d="M367 175L368 176L367 175z"/>
<path style="fill:#ffa54c; stroke:none;" d="M200 176L201 177L200 176M311 176L312 177L311 176M349 176L350 177L349 176M364 176L365 177L364 176M352 177L352 178L355 178L352 177M358 177L358 178L361 178L358 177M103 178L103 184L104 184L103 178M197 178L198 179L197 178M314 178L315 179L314 178M409 178L409 182L410 182L409 178M196 179L197 180L196 179M315 179L316 180L315 179z"/>
<path style="fill:#f65752; stroke:none;" d="M444 180L444 183L445 183L444 180z"/>
<path style="fill:#ffa54c; stroke:none;" d="M193 181L194 182L193 181M192 182L193 183L192 182M319 182L320 183L319 182z"/>
<path style="fill:#f65752; stroke:none;" d="M409.333 182.667L409.667 183.333L409.333 182.667z"/>
<path style="fill:#ffa54c; stroke:none;" d="M191 183L192 184L191 183M320 183L321 184L320 183M444 183L444 192L445 192L444 183M190 184L191 185L190 184M321 184L322 185L321 184M322 185L323 186L322 185M323 186L324 187L323 186M324 187L325 188L324 187M325 188L326 189L325 188M410 188L410 192L411 192L410 188M326 189L327 190L326 189M102 190L102 200L103 200L102 190M184 190L185 191L184 190M327 190L328 191L327 190M183 191L184 192L183 191M328 191L329 192L328 191M182 192L183 193L182 192M329 192L330 193L329 192z"/>
<path style="fill:#f65752; stroke:none;" d="M410 192L410 196L411 196L410 192z"/>
<path style="fill:#ffa54c; stroke:none;" d="M181 193L182 194L181 193M246 193L246 194L250 194L246 193z"/>
<path style="fill:#f65752; stroke:none;" d="M250 193.424C238.857 194.905 228.429 197.25 219 203.774C186.061 226.566 185.915 280.604 216 305.674C230.369 317.648 250.068 320.258 268 317.715C331.891 308.652 334.807 210.126 273 195.131C265.654 193.349 257.515 192.426 250 193.424z"/>
<path style="fill:#ffa54c; stroke:none;" d="M262 193L262 194L266 194L262 193M240.667 194.333L241.333 194.667L240.667 194.333M270.667 194.333L271.333 194.667L270.667 194.333M236.667 195.333L237.333 195.667L236.667 195.333M274.667 195.333L275.333 195.667L274.667 195.333M233 196L234 197L233 196M278 196L279 197L278 196M332 196L333 197L332 196M178 197L179 198L178 197M230 197L231 198L230 197M280.667 197.333L281.333 197.667L280.667 197.333M333 197L334 198L333 197M177 198L178 199L177 198M228 198L229 199L228 198M283 198L284 199L283 198M226 199L227 200L226 199M285 199L286 200L285 199M176 200L177 201L176 200M224 200L225 201L224 200M287 200L288 201L287 200M335 200L336 201L335 200M175 201L176 202L175 201M222 201L223 202L222 201M289 201L290 202L289 201M411 201L411 208L412 208L411 201M219 203L220 204L219 203M292 203L293 204L292 203M337 203L338 204L337 203M173 204L174 205L173 204M216 205L217 206L216 205M172 206L173 207L172 206M215 206L216 207L215 206M296 206L297 207L296 206M339 206L340 207L339 206M214 207L215 208L214 207M297 207L298 208L297 207M298 208L299 209L298 208M340 208L341 209L340 208z"/>
<path style="fill:#f65752; stroke:none;" d="M411 208L411 215L412 215L411 208z"/>
<path style="fill:#ffa54c; stroke:none;" d="M170 209L171 210L170 209M299 209L300 210L299 209M341 210L342 211L341 210M101 211C101 251.025 100.116 291.126 102.91 331C104.471 353.265 107.505 378.521 126 393.532C138.514 403.689 155.497 406.3 171 408.155C201.798 411.84 232.992 411 264 411C245.075 384.027 220.22 358.817 198.375 334.117C188.234 322.65 176.73 314.397 170 300C162.137 297.56 153.764 283.271 148.421 277C138.13 264.92 127.598 253.049 117.271 241C112.734 235.707 106.29 230.284 103.178 224C101.144 219.892 102.739 215.144 101 211M169 211L170 212L169 211M301 211L302 212L301 211M209 212L210 213L209 212M302 212L303 213L302 212M168 213L169 214L168 213M208 213L209 214L208 213M303 213L304 214L303 213M207 214L208 215L207 214M343 214L344 215L343 214M167 215L168 216L167 215M344 216L345 217L344 216M166.333 217.667L166.667 218.333L166.333 217.667M205 217L206 218L205 217M306 217L307 218L306 217M204 218L205 219L204 218M345 218L346 219L345 218M165 220L166 221L165 220M203 220L204 221L203 220M308 220L309 221L308 220M346 221L347 222L346 221M164.333 222.667L164.667 223.333L164.333 222.667M201 223L202 224L201 223M310 223L311 224L310 223M347 223L348 224L347 223M163.333 225.667L163.667 226.333L163.333 225.667M200 225L201 226L200 225M311 225L312 226L311 225M348 226L349 227L348 226M199 227L200 228L199 227M312 227L313 228L312 227M162.333 228.667L162.667 229.333L162.333 228.667M349.333 229.667L349.667 230.333L349.333 229.667M198 230L199 231L198 230M313 230L314 231L313 230M412 230L412 254L413 254L412 230M161.333 232.667L161.667 233.333L161.333 232.667M197 232L198 233L197 232M314 232L315 233L314 232M350.333 233.667L350.667 234.333L350.333 233.667M196.333 235.667L196.667 236.333L196.333 235.667M315.333 235.667L315.667 236.333L315.333 235.667M160 236L160 239L161 239L160 236M195 238L195 241L196 241L195 238M351.333 238.667L351.667 239.333L351.333 238.667M316.333 239.667L316.667 240.333L316.333 239.667M159 242L159 246L160 246L159 242M194 243L194 246L195 246L194 243M317 243L317 246L318 246L317 243M352 244L352 249L353 249L352 244M193 250L193 261L194 261L193 250M318 252L318 260L319 260L318 252M158 254L158 258L159 258L158 254M352 263L352 268L353 268L352 263M194 265L194 269L195 269L194 265M159 266L159 270L160 270L159 266M317 266L317 269L318 269L317 266z"/>
<path style="fill:#f65752; stroke:none;" d="M445 268C445 324.764 451.254 399.428 391 429.752C380.142 435.217 368.924 438.857 357 441.196C336.73 445.171 315.599 446 295 446C303.682 462.758 321.302 477.644 333.579 492C338.42 497.66 344.311 507.499 351.039 510.856C359.594 515.125 373.778 511 383 511C423.188 511 462.704 503.152 488.255 469C516.402 431.377 512 385.289 512 341L511 341L510 343L475.424 302L445 268z"/>
<path style="fill:#ffa54c; stroke:none;" d="M195 271L195 274L196 274L195 271M316.333 271.667L316.667 272.333L316.333 271.667M351.333 272.667L351.667 273.333L351.333 272.667M160 273L160 276L161 276L160 273M196.333 275.667L196.667 276.333L196.333 275.667M315.333 275.667L315.667 276.333L315.333 275.667M350.333 277.667L350.667 278.333L350.333 277.667M161 278L161 281L162 281L161 278M197.333 278.667L197.667 279.333L197.333 278.667M314 279L315 280L314 279M198 281L199 282L198 281M313 281L314 282L313 281M349.333 281.667L349.667 282.333L349.333 281.667M162.333 282.667L162.667 283.333L162.333 282.667M411 282L411 295L412 295L411 282M199.333 283.667L199.667 284.333L199.333 283.667M312 284L313 285L312 284M163.333 285.667L163.667 286.333L163.333 285.667M348 285L349 286L348 285M200 286L201 287L200 286M311 286L312 287L311 286M201.333 287.667L201.667 288.333L201.333 287.667M164.333 288.667L164.667 289.333L164.333 288.667M310 288L311 289L310 288M347 288L348 289L347 288M202 289L203 290L202 289M346.333 290.667L346.667 291.333L346.333 290.667M165.333 291.667L165.667 292.333L165.333 291.667M203 291L204 292L203 291M308 291L309 292L308 291M166.333 293.667L166.667 294.333L166.333 293.667M204 293L205 294L204 293M345 293L346 294L345 293M205 294L206 295L205 294M306 294L307 295L306 294M206 295L207 296L206 295M344 295L345 296L344 295M167 296L168 297L167 296M207 297L208 298L207 297M304 297L305 298L304 297M168.333 298.667L168.667 299.333L168.333 298.667M208 298L209 299L208 298M303 298L304 299L303 298M209 299L210 300L209 299M302 299L303 300L302 299M210 300L211 301L210 300M301 300L302 301L301 300M211 301L212 302L211 301M341 301L342 302L341 301M212 302L213 303L212 302M213 303L214 304L213 303M298 303L299 304L298 303M340 303L341 304L340 303M214 304L215 305L214 304M297 304L298 305L297 304M215 305L216 306L215 305M296 305L297 306L296 305M339 305L340 306L339 305M218 307L219 308L218 307M219 308L220 309L219 308M292 308L293 309L292 308M337 308L338 309L337 308M221 309L222 310L221 309M222 310L223 311L222 310M289 310L290 311L289 310M336 310L337 311L336 310M224 311L225 312L224 311M287 311L288 312L287 311M335 311L336 312L335 311M410 311L410 321L411 321L410 311M226 312L227 313L226 312M285 312L286 313L285 312M228 313L229 314L228 313M283 313L284 314L283 313M230.667 314.333L231.333 314.667L230.667 314.333M280.667 314.333L281.333 314.667L280.667 314.333M333 314L334 315L333 314M233.667 315.333L234.333 315.667L233.667 315.333M278 315L279 316L278 315M332 315L333 316L332 315M236.667 316.333L237.333 316.667L236.667 316.333M274.667 316.333L275.333 316.667L274.667 316.333M240 317L240 318L243 318L240 317M269 317L269 318L272 318L269 317M444 317L444 328L445 328L444 317M246 318L246 319L251 319L246 318M261 318L261 319L266 319L261 318M329 319L330 320L329 319M328 320L329 321L328 320M327 321L328 322L327 321M326 322L327 323L326 322M325 323L326 324L325 323M323 325L324 326L323 325M322 326L323 327L322 326M321 327L322 328L321 327M320 328L321 329L320 328M319 329L320 330L319 329M318 330L319 331L318 330M315 332L316 333L315 332M314 333L315 334L314 333M409 333L409 339L410 339L409 333M311 335L312 336L311 335M201 336L202 337L201 336M310 336L311 337L310 336M202 337L203 338L202 337M308 337L309 338L308 337M443 337L443 342L444 342L443 337M204 338L205 339L204 338M307 338L308 339L307 338M205.667 339.333L206.333 339.667L205.667 339.333M305 339L306 340L305 339M207 340L208 341L207 340M303 340L304 341L303 340M209 341L210 342L209 341M302 341L303 342L302 341M211 342L212 343L211 342M300 342L301 343L300 342M213 343L214 344L213 343M298 343L299 344L298 343M215 344L216 345L215 344M296 344L297 345L296 344M408 344L408 348L409 348L408 344M217.667 345.333L218.333 345.667L217.667 345.333M293 345L294 346L293 345M219.667 346.333L220.333 346.667L219.667 346.333M291 346L292 347L291 346M222.667 347.333L223.333 347.667L222.667 347.333M288 347L289 348L288 347M442 347L442 350L443 350L442 347M225.667 348.333L226.333 348.667L225.667 348.333M285 348L286 349L285 348M228.667 349.333L229.333 349.667L228.667 349.333M282 349L283 350L282 349M232.667 350.333L233.333 350.667L232.667 350.333M278.667 350.333L279.333 350.667L278.667 350.333M236 351L236 352L239 352L236 351M272 351L272 352L275 352L272 351M407.333 351.667L407.667 352.333L407.333 351.667M242 352L242 353L247 353L242 352M265 352L265 353L269 353L265 352M441 354L441 357L442 357L441 354M406.333 356.667L406.667 357.333L406.333 356.667M405 360L406 361L405 360M440.333 360.667L440.667 361.333L440.333 360.667M404 363L405 364L404 363M439.333 364.667L439.667 365.333L439.333 364.667M403 366L404 367L403 366M438.333 368.667L438.667 369.333L438.333 368.667M402 369L403 370L402 369M401 371L402 372L401 371M437 372L438 373L437 372M400 373L401 374L400 373M399 375L400 376L399 375M436 375L437 376L436 375M398 377L399 378L398 377M435 378L436 379L435 378M396 380L397 381L396 380M434 381L435 382L434 381M394 383L395 384L394 383M433 383L434 384L433 383M393 384L394 385L393 384M432 385L433 386L432 385M431 387L432 388L431 387M430 389L431 390L430 389M429 391L430 392L429 391M385 392L386 393L385 392M384 393L385 394L384 393M428 393L429 394L428 393M381 395L382 396L381 395M427 395L428 396L427 395M380 396L381 397L380 396M378 397L379 398L378 397M425 398L426 399L425 398z"/>
<path style="fill:#010101; stroke:none;" d="M0 399L0 512L141 512L141 511C93.3887 511 41.8316 505.491 17.2585 458C11.358 446.596 6.88801 434.572 4.21065 422C2.66542 414.744 2.85337 405.737 0 399z"/>
<path style="fill:#ffa54c; stroke:none;" d="M424 400L425 401L424 400M370 401L371 402L370 401M423 401L424 402L423 401M368 402L369 403L368 402M365 403L366 404L365 403M362.667 404.333L363.333 404.667L362.667 404.333M421 404L422 405L421 404M359 405L360 406L359 405M420 405L421 406L420 405M354 406L354 407L357 407L354 406z"/>
<path style="fill:#010101; stroke:none;" d="M511 406C510.616 452.449 475.211 493.473 432 506.279C413.017 511.905 390.636 511 371 511L371 512L512 512L512 438L511 406z"/>
<path style="fill:#ffa54c; stroke:none;" d="M350.667 407.333L351.333 407.667L350.667 407.333M343 408L343 409L347 409L343 408M418 408L419 409L418 408M335 409L335 410L340 410L335 409M417 409L418 410L417 409M318 410L318 411L329 411L318 410M416 410L417 411L416 410M415 411L416 412L415 411M414 412L415 413L414 412z"/>
<path style="fill:#fffdfd; stroke:none;" d="M2 413L3 414L2 413z"/>
<path style="fill:#ffa54c; stroke:none;" d="M510 413L511 414L510 413M412 414L413 415L412 414M411 415L412 416L411 415M410 416L411 417L410 416M409 417L410 418L409 417M408 418L409 419L408 418M404 421L405 422L404 421z"/>
<path style="fill:#fffdfd; stroke:none;" d="M4 423L5 424L4 423z"/>
<path style="fill:#ffa54c; stroke:none;" d="M401 423L402 424L401 423M400 424L401 425L400 424M398 425L399 426L398 425M397 426L398 427L397 426z"/>
<path style="fill:#fffdfd; stroke:none;" d="M5 427L6 428L5 427z"/>
<path style="fill:#ffa54c; stroke:none;" d="M395 427L396 428L395 427M393 428L394 429L393 428M391 429L392 430L391 429M389 430L390 431L389 430z"/>
<path style="fill:#fffdfd; stroke:none;" d="M6 431L7 432L6 431z"/>
<path style="fill:#ffa54c; stroke:none;" d="M387 431L388 432L387 431M385 432L386 433L385 432M383 433L384 434L383 433M380 434L381 435L380 434M377.667 435.333L378.333 435.667L377.667 435.333M374.667 436.333L375.333 436.667L374.667 436.333M371.667 437.333L372.333 437.667L371.667 437.333M367.667 438.333L368.333 438.667L367.667 438.333M363.667 439.333L364.333 439.667L363.667 439.333M358 440L358 441L361 441L358 440M353 441L353 442L356 442L353 441M346 442L346 443L350 443L346 442z"/>
<path style="fill:#fffdfd; stroke:none;" d="M10 443L11 444L10 443z"/>
<path style="fill:#ffa54c; stroke:none;" d="M338 443L338 444L343 444L338 443M325 444L325 445L332 445L325 444z"/>
<path style="fill:#fffdfd; stroke:none;" d="M12 448L13 449L12 448z"/>
<path style="fill:#ffa54c; stroke:none;" d="M490 465L491 466L490 465z"/>
<path style="fill:#fffdfd; stroke:none;" d="M23 468L24 469L23 468M25 471L26 472L25 471z"/>
<path style="fill:#d53e93; stroke:none;" d="M483 474L484 475L483 474z"/>
<path style="fill:#fffdfd; stroke:none;" d="M30 477L31 478L30 477M33 480L34 481L33 480M34 481L35 482L34 481M36 483L37 484L36 483z"/>
<path style="fill:#d53e93; stroke:none;" d="M473 484L474 485L473 484z"/>
<path style="fill:#fffdfd; stroke:none;" d="M42 488L43 489L42 488z"/>
<path style="fill:#d53e93; stroke:none;" d="M468 488L469 489L468 488M454 497L455 498L454 497z"/>
<path style="fill:#ffa54c; stroke:none;" d="M450 499L451 500L450 499z"/>
<path style="fill:#fffdfd; stroke:none;" d="M65 501L66 502L65 501M84 507L85 508L84 507z"/>
<path style="fill:#ffa54c; stroke:none;" d="M352.667 511.333L353.333 511.667L352.667 511.333z"/>
</svg>
